<svg width="1440" height="1024" viewBox="0 0 1440 1024" fill="none" xmlns="http://www.w3.org/2000/svg">
<g clip-path="url(#clip0)">
<rect width="1440" height="1024" fill="url(#paint0_linear)"/>
<path d="M725.987 155.529C925.794 165.578 1158.1 55.8342 1259.08 105.555C1361.03 154.549 1331.65 363.007 1290.77 564.227C1250.86 764.719 1180.81 918.61 1062.5 968.603C944.191 1018.6 779.555 963.238 559.423 958.365C339.291 953.493 83.2647 1037.74 38.8235 968.603C-5.61759 899.465 128.796 665.397 190 459C251.204 252.603 239.199 73.878 300.002 44.0296C360.805 14.1813 527.147 144.752 725.987 155.529Z" fill="url(#paint1_linear)"/>
<path d="M1200.98 209.75H275.63C268.732 209.75 263.14 215.342 263.14 222.24V735.59C263.14 742.488 268.732 748.08 275.63 748.08H1200.98C1207.88 748.08 1213.47 742.488 1213.47 735.59V222.24C1213.47 215.342 1207.88 209.75 1200.98 209.75Z" fill="url(#paint2_linear)"/>
<path d="M1199.58 217.32H277.14C270.242 217.32 264.65 222.912 264.65 229.81V733.8C264.65 740.698 270.242 746.29 277.14 746.29H1199.58C1206.48 746.29 1212.07 740.698 1212.07 733.8V229.81C1212.07 222.912 1206.48 217.32 1199.58 217.32Z" fill="white"/>
<path d="M1199.58 217.32H277.14C270.242 217.32 264.65 222.912 264.65 229.81V733.8C264.65 740.698 270.242 746.29 277.14 746.29H1199.58C1206.48 746.29 1212.07 740.698 1212.07 733.8V229.81C1212.07 222.912 1206.48 217.32 1199.58 217.32Z" fill="#121212"/>
<path d="M596.93 283.67H342.68V305.25H596.93V283.67Z" fill="white"/>
<path d="M1134 370H343V668H1134V370Z" fill="#EEEEEE"/>
<path d="M778.382 488.804H767.19V467.141C767.19 442.695 747.631 422.373 723.099 422.002C717.183 421.941 711.314 423.046 705.829 425.255C700.344 427.463 695.352 430.732 691.141 434.872C686.93 439.012 683.582 443.941 681.291 449.377C679 454.812 677.812 460.645 677.793 466.54V488.804H666.626C661.691 488.819 656.962 490.78 653.472 494.257C649.983 497.735 648.015 502.447 648 507.365V596.439C648.015 601.357 649.983 606.069 653.472 609.547C656.962 613.024 661.691 614.985 666.626 615H778.382C783.317 614.985 788.045 613.024 791.533 609.546C795.022 606.069 796.987 601.357 797 596.439V507.365C796.987 502.448 795.022 497.736 791.533 494.258C788.045 490.78 783.317 488.819 778.382 488.804V488.804ZM729.029 546.708V578.611C729.04 580.301 728.406 581.931 727.256 583.172C726.106 584.413 724.525 585.172 722.835 585.295C721.952 585.336 721.07 585.198 720.242 584.89C719.414 584.582 718.658 584.11 718.019 583.502C717.379 582.894 716.87 582.163 716.523 581.354C716.175 580.544 715.995 579.673 715.995 578.792V546.692C712.974 545.224 710.541 542.778 709.093 539.754C707.646 536.731 707.269 533.307 708.026 530.043C708.782 526.779 710.626 523.866 713.257 521.781C715.888 519.695 719.15 518.56 722.512 518.56C725.874 518.56 729.137 519.695 731.768 521.781C734.399 523.866 736.243 526.779 736.999 530.043C737.755 533.307 737.379 536.731 735.932 539.754C734.484 542.778 732.051 545.224 729.029 546.692V546.708ZM754.173 488.804H690.827V466.54C690.827 458.172 694.163 450.148 700.101 444.231C706.038 438.315 714.091 434.991 722.488 434.991C730.884 434.991 738.937 438.315 744.875 444.231C750.812 450.148 754.148 458.172 754.148 466.54L754.173 488.804Z" fill="#FFB300"/>
<path opacity="0.1" d="M1134.04 338.25H1053.94V357.16H1134.04V338.25Z" fill="#5A5773"/>
<path d="M1161.3 911.29C1160.77 908.639 1159.87 906.077 1158.62 903.68L1146.62 885.76H1146.69C1146.69 885.76 1144.8 876.76 1146.69 872.34C1148.58 867.92 1139.95 857.05 1139.95 857.05C1139.95 857.05 1138.9 854.32 1141.64 850.96C1144.38 847.6 1139.95 837.76 1139.95 837.76C1139.95 837.76 1137.85 817.21 1137.64 814.07C1137.43 810.93 1135.74 793.53 1135.74 793.53L1131.74 756.64L1124.62 658.87L1124.49 657.04C1125.37 656.61 1125.84 656.34 1125.84 656.34L1124.42 602.28L1125.65 601.17C1136.39 591.45 1161.16 568.95 1160.91 568.46C1160.66 567.97 1157.91 530.89 1157.59 521.61C1157.32 515.015 1155.87 508.521 1153.33 502.43C1152.71 501.2 1150.92 493.09 1150.18 489.66C1149.98 488.72 1149.85 488.13 1149.85 488.13C1149.85 488.13 1142.59 474.29 1143.22 468C1143.85 461.71 1145.11 457 1129.63 454.8C1129.63 454.8 1116.63 452.86 1108.89 447.57C1104.31 444.401 1099.31 441.896 1094.03 440.13C1094.03 440.13 1089.69 432.13 1086.67 434.84C1085.39 431.985 1084.44 428.997 1083.82 425.93L1083.73 425.37C1089.46 421.373 1093.59 415.468 1095.37 408.71C1095.47 408.33 1095.55 407.94 1095.64 407.56C1095.94 407.662 1096.25 407.719 1096.57 407.73C1099.2 407.73 1100.82 404.8 1103.28 403.87C1104.28 403.48 1105.51 403.42 1106.28 402.63C1106.53 402.325 1106.72 401.973 1106.84 401.593C1106.95 401.213 1106.99 400.814 1106.94 400.42C1106.96 400.147 1106.96 399.873 1106.94 399.6C1106.94 399.503 1106.94 399.407 1106.94 399.31V399.41C1106.27 395.77 1103.45 392.54 1103.76 388.84C1104.06 385.36 1107.12 382.3 1106.87 378.91C1106.87 378.642 1106.84 378.375 1106.8 378.11V378.23C1106.43 376.906 1105.74 375.692 1104.8 374.69C1103.72 373.223 1102.31 372.037 1100.68 371.23C1099.29 370.62 1097.68 370.48 1096.38 369.75C1092.56 367.67 1092.57 362.25 1090.3 358.55C1089.33 357.005 1087.95 355.759 1086.31 354.95C1084.68 354.14 1082.85 353.797 1081.03 353.96C1078.19 354.24 1075.62 355.75 1072.81 356.24C1068.97 356.92 1065.06 355.67 1061.42 354.24C1057.78 352.81 1054.09 351.24 1050.18 351.24C1046.27 351.24 1042.04 353.24 1040.86 356.93C1040.23 358.93 1040.54 361.08 1040.06 363.11C1039.2 366.69 1036.06 369.25 1032.81 371.03C1030.81 372.14 1028.43 373.41 1027.81 375.51C1027.81 375.45 1027.81 375.4 1027.81 375.35C1027.77 375.518 1027.73 375.688 1027.71 375.86C1027.69 376.083 1027.69 376.307 1027.71 376.53C1027.71 377.97 1028.47 379.34 1028.98 380.71C1029.93 383.316 1029.91 386.178 1028.92 388.77C1028.18 390.67 1026.92 392.34 1026.2 394.23C1025.86 395.11 1025.64 396.032 1025.54 396.97V396.81C1025.52 397.236 1025.52 397.664 1025.54 398.09C1025.53 399.55 1025.87 400.992 1026.54 402.29C1027 403.186 1027.63 403.982 1028.4 404.629C1029.17 405.277 1030.07 405.763 1031.03 406.06C1033.03 406.52 1034.28 404.56 1036.39 405.06C1036.77 405.151 1037.14 405.268 1037.5 405.41C1037.57 405.86 1037.64 406.31 1037.72 406.75C1039 413.48 1042.58 419.553 1047.86 423.92C1047.86 424.16 1047.94 424.4 1047.97 424.65C1048.61 428.637 1048.89 432.673 1048.8 436.71C1048.8 436.71 1045.65 432.1 1041.33 441C1041.33 441 1030.06 447.5 1026.17 448.24C1022.28 448.98 1008.47 453.79 1008.47 453.79C1006.39 455.296 1003.88 456.105 1001.31 456.1C997 456.1 993.42 465.53 993.94 470.66C994.46 475.79 993.63 479.57 989.62 479.78C985.61 479.99 987.8 488.12 987.83 488.26L987.46 490.01C986.68 493.59 984.98 501.27 984.38 502.47C981.837 508.562 980.392 515.055 980.11 521.65C979.8 530.93 977.11 567.87 976.8 568.5C976.59 568.91 993.56 584.42 1005.49 595.26L1007.22 596.82L1001.73 648.1C1001.89 650.076 1002.48 651.993 1003.45 653.72C1004.42 655.446 1005.76 656.941 1007.37 658.1C1007.37 658.7 1007.37 659.31 1007.31 659.94C1007.07 665.94 1006.59 673.2 1005.63 675.1C1003.95 678.46 1004.37 696.48 1004.37 696.48C1004.37 696.48 1002.68 733.16 1000.58 737.15C998.48 741.14 998.05 749.51 998.68 751.15C999.31 752.79 996.57 796.84 996.57 796.84L994.47 816.55C994.47 816.55 995.1 835.41 993.2 835.83C991.3 836.25 990.25 849.25 990.25 849.25C990.25 849.25 983.52 858.47 986.46 861.82C989.4 865.17 986.03 866.65 985.72 867.48C985.41 868.31 979.3 871.48 983.72 883.2C983.761 883.316 983.807 883.429 983.86 883.54C979.72 889.29 966.6 907.84 967.4 910.66C967.991 912.454 969.242 913.956 970.9 914.86C973.99 916.71 979.29 917.57 987.72 914.86C1001.72 910.35 1000.72 907.1 1000.72 907.1C1000.79 905.581 1001.44 904.146 1002.54 903.093C1003.64 902.04 1005.1 901.448 1006.62 901.44C1012.41 901.02 1016.73 895.68 1016.73 895.68L1016.05 893.15L1015.12 889.65C1015.23 888.65 1015.94 886.9 1019.12 885.93C1023.97 884.46 1022.7 875.24 1022.7 875.24C1022.7 875.24 1022.28 865.6 1024.38 864.34C1026.48 863.08 1025.65 847.15 1025.65 847.15C1025.65 847.15 1027.97 835.62 1031.33 827.86C1034.69 820.1 1038.71 774 1038.71 774C1038.71 774 1041.44 751.36 1043.97 744.86C1046.5 738.36 1048.82 720.13 1048.82 720.13C1048.82 720.13 1064.41 689.94 1064.61 683.23C1064.61 683.23 1066.61 676.94 1068.61 683.86C1070.61 690.78 1076.23 707.34 1076.23 707.34L1081.7 727.67L1088.23 758.06L1092.45 783.64C1092.45 783.64 1091.81 793.28 1093.45 796.64C1095.09 800 1097.45 807.74 1096.19 809.21C1094.93 810.68 1098.71 817.6 1099.77 819.06C1100.83 820.52 1099.77 851.55 1099.77 851.55C1099.77 851.55 1104.61 877.96 1111.56 882.55C1112.04 882.869 1112.56 883.137 1113.1 883.35C1113 886.21 1112.9 890.04 1113.03 892.04C1113.01 892.487 1113.09 892.933 1113.25 893.35C1113.88 894.19 1121.04 899.85 1122.52 899.85C1124 899.85 1129.25 903.52 1129.47 905.3C1129.69 907.08 1144.86 914.62 1147.01 914.84C1149.16 915.06 1159.58 916.93 1161.01 914C1161.36 913.143 1161.46 912.203 1161.3 911.29ZM1124.03 533.57L1125.11 534.5C1125.11 534.5 1126.22 543.15 1127.01 545.74C1127.8 548.33 1126.85 553.37 1126.85 553.37C1126.92 555.251 1127.3 557.108 1127.96 558.87C1128.9 560.76 1126.06 564.87 1126.06 564.87H1123.53L1122.74 532.49L1124.03 533.57ZM1048.8 436.89V436.7C1048.78 436.76 1048.77 436.83 1048.77 436.89H1048.8ZM1009.95 561.54C1009.56 560.702 1009.5 559.748 1009.79 558.87C1010.01 558.395 1010.19 557.9 1010.32 557.39C1010.63 556.076 1010.82 554.738 1010.9 553.39C1010.9 553.373 1010.9 553.357 1010.9 553.34C1010.81 552.86 1010 548.22 1010.75 545.76C1011.5 543.3 1012.64 534.52 1012.64 534.52L1013.36 533.91L1015.03 532.46C1015.03 532.46 1015.03 531.92 1015.15 531.03C1015.5 538.63 1015.78 547.03 1015.33 547.45C1014.49 548.28 1011.43 556.45 1012.17 556.77C1012.41 556.88 1012.08 560.15 1011.52 564.55C1010.89 563.605 1010.36 562.596 1009.95 561.54V561.54Z" fill="url(#paint3_linear)"/>
<path d="M1090.55 444.88V457.32L1065.03 470.15C1065.03 470.15 1039.69 454.82 1045.94 448.72C1049.94 444.86 1049.17 434.26 1048.09 426.97C1047.46 422.73 1046.73 419.62 1046.73 419.62C1046.73 419.62 1092.25 406.62 1085.37 416.49C1083.07 419.79 1082.89 424.06 1083.66 428.29C1085.22 436.68 1090.55 444.88 1090.55 444.88Z" fill="#C36C78"/>
<path d="M1020.64 566.53L1017.35 607.05C1017.35 607.05 1012.42 602.58 1006.04 596.76C994.21 585.97 977.41 570.54 977.61 570.13C977.92 569.5 980.61 532.74 980.9 523.5C981.173 516.941 982.602 510.482 985.12 504.42C985.72 503.22 987.41 495.58 988.12 492.01C988.36 490.9 988.51 490.18 988.51 490.18L994.03 487.96C994.03 487.96 1017.03 513.62 1017.03 514.09C1017.03 514.56 1015.46 534.27 1015.46 534.27L1013.83 535.69L1013.12 536.3C1013.12 536.3 1012.02 544.91 1011.24 547.49C1010.46 550.07 1011.3 554.55 1011.39 555.03C1011.32 556.377 1011.13 557.716 1010.82 559.03C1010.69 559.535 1010.51 560.028 1010.29 560.5C1010.01 561.375 1010.07 562.325 1010.45 563.16C1010.89 564.319 1011.47 565.423 1012.17 566.45L1020.64 566.53Z" fill="#2F2E41"/>
<path d="M1160.03 570.13C1160.27 570.62 1135.74 593.01 1125.11 602.68L1120.29 607.05L1117.03 566.53H1125.48C1125.48 566.53 1128.3 562.46 1127.36 560.58C1126.7 558.827 1126.34 556.98 1126.27 555.11C1126.27 555.11 1127.2 550.11 1126.42 547.52C1125.64 544.93 1124.54 536.33 1124.54 536.33L1123.47 535.41L1122.2 534.3C1122.2 534.3 1120.63 514.59 1120.63 514.12C1120.63 513.65 1143.63 487.99 1143.63 487.99L1149.11 490.18C1149.11 490.18 1149.23 490.77 1149.43 491.71C1150.17 495.12 1151.94 503.19 1152.55 504.42C1155.07 510.482 1156.5 516.941 1156.77 523.5C1157.03 532.74 1159.71 569.5 1160.03 570.13Z" fill="#2F2E41"/>
<path d="M1160.13 914.07C1158.66 916.99 1148.34 915.07 1146.21 914.91C1144.08 914.75 1129.04 907.18 1128.83 905.41C1128.62 903.64 1123.41 899.99 1121.95 899.99C1120.49 899.99 1113.4 894.35 1112.77 893.52C1112.61 893.106 1112.54 892.663 1112.56 892.22C1112.34 888.79 1112.77 879.96 1112.77 879.96L1143.02 881.63L1157.72 903.74C1158.96 906.125 1159.85 908.674 1160.38 911.31C1160.56 912.235 1160.47 913.192 1160.13 914.07V914.07Z" fill="#3F3D56"/>
<path d="M1160.13 914.07C1158.66 916.99 1148.34 915.07 1146.21 914.91C1144.08 914.75 1129.04 907.18 1128.83 905.41C1128.62 903.64 1123.41 899.99 1121.95 899.99C1120.49 899.99 1113.4 894.35 1112.77 893.52C1112.61 893.106 1112.54 892.663 1112.56 892.22C1112.34 888.79 1112.77 879.96 1112.77 879.96L1143.02 881.63L1157.72 903.74C1158.96 906.125 1159.85 908.674 1160.38 911.31C1160.56 912.235 1160.47 913.192 1160.13 914.07V914.07Z" fill="black"/>
<path opacity="0.1" d="M1160.13 914.07C1158.66 916.99 1148.34 915.07 1146.21 914.91C1144.08 914.75 1129.04 907.18 1128.83 905.41C1128.62 903.64 1123.41 899.99 1121.95 899.99C1120.49 899.99 1113.4 894.35 1112.77 893.52C1112.61 893.106 1112.54 892.663 1112.56 892.22L1122.36 898.42C1122.36 898.42 1128.62 902.42 1130.29 904.79C1131.96 907.16 1145.12 912.09 1146.21 912.19C1147.02 912.27 1155.66 910.61 1160.38 911.31C1160.56 912.235 1160.47 913.192 1160.13 914.07V914.07Z" fill="black"/>
<path d="M1017.13 895.82C1017.13 895.82 1012.85 901.14 1007.13 901.55C1005.62 901.561 1004.17 902.152 1003.09 903.199C1002 904.247 1001.36 905.672 1001.29 907.18C1001.29 907.18 1002.29 910.42 988.46 914.91C980.11 917.6 974.86 916.75 971.8 914.91C970.158 914.004 968.918 912.511 968.33 910.73C967.39 907.4 985.85 882.05 985.85 882.05L1002.65 881.05L1014.65 886.47L1016.49 893.34L1017.13 895.82Z" fill="#3F3D56"/>
<path d="M1017.13 895.82C1017.13 895.82 1012.85 901.14 1007.13 901.55C1005.62 901.561 1004.17 902.152 1003.09 903.199C1002 904.247 1001.36 905.672 1001.29 907.18C1001.29 907.18 1002.29 910.42 988.46 914.91C980.11 917.6 974.86 916.75 971.8 914.91C970.158 914.004 968.918 912.511 968.33 910.73C967.39 907.4 985.85 882.05 985.85 882.05L1002.65 881.05L1014.65 886.47L1016.49 893.34L1017.13 895.82Z" fill="black"/>
<path opacity="0.1" d="M1017.13 895.82C1017.13 895.82 1012.85 901.14 1007.13 901.55C1005.62 901.561 1004.17 902.152 1003.09 903.199C1002 904.247 1001.36 905.672 1001.29 907.18C1001.29 907.18 1002.29 910.42 988.46 914.91C980.11 917.6 974.86 916.75 971.8 914.91C979.67 914.09 997.06 909.12 998.8 907.4C1000.89 905.31 1003.5 899.57 1005.27 899.47C1006.5 899.39 1012.75 895.63 1016.5 893.3L1017.13 895.82Z" fill="black"/>
<path d="M1145.94 872.56C1144.06 876.94 1145.94 885.91 1145.94 885.91C1145.94 885.91 1117.94 887.37 1111.1 882.78C1104.26 878.19 1099.42 851.9 1099.42 851.9C1099.42 851.9 1100.42 821.03 1099.42 819.57C1098.42 818.11 1094.62 811.23 1095.87 809.77C1097.12 808.31 1094.87 800.59 1093.16 797.25C1091.45 793.91 1092.16 784.32 1092.16 784.32L1087.98 758.86L1081.52 728.62L1076.03 708.38C1076.03 708.38 1070.4 691.9 1068.49 685.02C1066.58 678.14 1064.56 684.39 1064.56 684.39C1064.36 691.07 1048.92 721.11 1048.92 721.11C1048.92 721.11 1046.62 739.26 1044.12 745.72C1041.62 752.18 1038.9 774.72 1038.9 774.72C1038.9 774.72 1034.9 820.61 1031.6 828.33C1028.3 836.05 1026.03 847.52 1026.03 847.52C1026.03 847.52 1026.87 863.38 1024.78 864.63C1022.69 865.88 1023.03 875.48 1023.03 875.48C1023.03 875.48 1024.28 884.65 1019.48 886.12C1014.68 887.59 1015.48 890.71 1015.48 890.71C1015.48 890.71 988.78 895.09 984.4 883.4C980.02 871.71 986.07 868.6 986.4 867.76C986.73 866.92 990.06 865.47 987.14 862.12C984.22 858.77 990.89 849.61 990.89 849.61C990.89 849.61 991.94 836.68 993.81 836.26C995.68 835.84 995.07 817.07 995.07 817.07L997.15 797.46C997.15 797.46 999.87 753.65 999.24 751.98C998.61 750.31 999.03 741.98 1001.12 737.98C1003.21 733.98 1004.87 697.5 1004.87 697.5C1004.87 697.5 1004.45 679.57 1006.12 676.23C1007.12 674.34 1007.54 667.07 1007.78 661.14C1007.96 656.61 1008 652.86 1008 652.86L1031.36 644.1L1061.36 634.51L1086.6 646.61L1123.53 653.7L1123.99 660.07L1131.04 757.38L1135.04 794.09C1135.04 794.09 1136.71 811.4 1136.92 814.53C1137.13 817.66 1139.21 838.11 1139.21 838.11C1139.21 838.11 1143.59 847.91 1140.88 851.25C1138.17 854.59 1139.21 857.25 1139.21 857.25C1139.21 857.25 1147.82 868.18 1145.94 872.56Z" fill="#2F2E41"/>
<path opacity="0.1" d="M1085.39 416.49C1083.09 419.79 1082.91 424.06 1083.68 428.29C1078.42 431.997 1072.1 433.875 1065.67 433.635C1059.24 433.395 1053.07 431.049 1048.11 426.96V426.96C1047.48 422.72 1046.75 419.61 1046.75 419.61C1046.75 419.61 1092.27 406.63 1085.39 416.49Z" fill="black"/>
<path d="M1096.03 403.73C1096.03 409.525 1094.31 415.19 1091.09 420.008C1087.87 424.827 1083.3 428.582 1077.94 430.8C1072.59 433.017 1066.7 433.598 1061.01 432.467C1055.33 431.336 1050.11 428.546 1046.01 424.448C1041.91 420.351 1039.12 415.13 1037.99 409.446C1036.86 403.762 1037.44 397.871 1039.66 392.517C1041.88 387.163 1045.63 382.587 1050.45 379.368C1055.27 376.148 1060.94 374.43 1066.73 374.43C1070.58 374.411 1074.4 375.157 1077.96 376.623C1081.53 378.088 1084.77 380.246 1087.49 382.97C1090.21 385.695 1092.37 388.932 1093.84 392.495C1095.3 396.059 1096.05 399.877 1096.03 403.73Z" fill="#C36C78"/>
<path opacity="0.1" d="M1102.13 452.42L1092.53 623.37L1040.38 612.42L1030.05 543.89L1040.28 451.89L1047.98 452.88L1061.56 454.61L1075.01 455.44L1089.59 453.82L1102.13 452.42Z" fill="black"/>
<path d="M1102.13 453.67L1092.53 624.62L1040.38 613.67L1030.05 545.14L1040.28 453.15L1047.98 454.13L1061.56 455.86L1075.01 456.69L1089.59 455.07L1102.13 453.67Z" fill="#8F0B0D" fill-opacity="0.6"/>
<path d="M1059.26 458.26L1078.04 458.89L1072.76 466.28C1072.76 466.28 1073.13 481.21 1075.64 485.49C1078.15 489.77 1077.41 555.89 1077.41 555.89L1072.41 565.38L1063.86 554.74L1063.97 467.44L1059.26 458.26Z" fill="#3F3D56"/>
<path d="M1059.26 458.26L1078.04 458.89L1072.76 466.28C1072.76 466.28 1073.13 481.21 1075.64 485.49C1078.15 489.77 1077.41 555.89 1077.41 555.89L1072.41 565.38L1063.86 554.74L1063.97 467.44L1059.26 458.26Z" fill="#264632"/>
<path opacity="0.1" d="M1088.67 438.86L1071.15 458.26L1081.16 468.69L1097.75 452.52L1088.67 438.86Z" fill="black"/>
<path d="M1088.67 437.61L1071.15 457.01L1081.16 467.44L1097.75 451.27L1088.67 437.61Z" fill="#8F0B0D"/>
<path opacity="0.1" d="M1063.75 457.32L1046.01 439.59L1044.34 448.87L1052.48 469.21L1063.75 457.32Z" fill="black"/>
<path d="M1064.37 456.07L1046.64 438.34L1044.97 447.62L1053.11 467.96L1064.37 456.07Z" fill="#8F0B0D"/>
<path opacity="0.1" d="M1124.08 660.1C1115.57 664.157 1106.45 666.795 1097.08 667.91C1079.87 670.1 1068.61 648.2 1068.61 648.2L1062.04 656.75C1059.95 665.83 1028.14 668.12 1015.21 664.68C1012.53 664.017 1010 662.824 1007.79 661.17C1007.97 656.64 1008.01 652.89 1008.01 652.89L1031.37 644.13L1061.37 634.54L1086.61 646.64L1123.54 653.73L1124.08 660.1Z" fill="black"/>
<path opacity="0.1" d="M1102.13 453.68L1092.54 624.62L1040.38 613.67L1030.03 545.15L1040.25 453.15L1047.95 454.15C1047.75 457.501 1047.38 460.839 1046.82 464.15C1045.57 470 1053.29 511.51 1053.29 511.51C1053.29 511.51 1067.96 558.06 1074.56 551.35C1081.16 544.64 1090.56 509.21 1090.56 509.21C1096.93 496.07 1090.67 459.21 1090.2 458.47C1089.87 457.38 1089.67 456.256 1089.6 455.12L1102.13 453.68Z" fill="black"/>
<path opacity="0.1" d="M1124.66 585.96L1125.1 602.71L1120.28 607.08L1117.03 566.53H1124.23L1124.66 585.96Z" fill="black"/>
<path opacity="0.1" d="M1011.4 555.06C1011.33 556.407 1011.14 557.746 1010.83 559.06C1010.83 558.69 1010.83 558.48 1010.75 558.45C1010.45 558.37 1010.81 556.84 1011.4 555.06Z" fill="black"/>
<path opacity="0.1" d="M1020.64 566.53L1017.35 607.05C1017.35 607.05 1012.42 602.58 1006.04 596.76L1006.8 589.58C1006.8 589.58 1009.49 571.94 1010.47 563.24C1010.91 564.399 1011.49 565.503 1012.19 566.53H1020.64Z" fill="black"/>
<path d="M1048.93 438.96C1048.93 438.96 1045.81 434.37 1041.53 443.23C1041.53 443.23 1030.37 449.7 1026.53 450.43C1022.69 451.16 1009.03 455.96 1009.03 455.96C1006.97 457.451 1004.49 458.253 1001.94 458.25C997.66 458.25 994.11 467.64 994.63 472.75C995.15 477.86 994.32 481.62 990.36 481.83C986.4 482.04 988.58 490.27 988.58 490.27L1014.97 520.52C1014.97 520.52 1016.64 548.37 1015.81 549.21C1014.98 550.05 1011.95 558.21 1012.68 558.49C1013.41 558.77 1008.68 589.57 1008.68 589.57L1002.32 649.34C1002.32 649.34 1002.32 659.34 1015.26 662.79C1028.2 666.24 1060.03 663.96 1062.08 654.88L1068.65 646.32C1068.65 646.32 1079.91 668.23 1097.12 666.04C1114.33 663.85 1125.29 657.59 1125.29 657.59L1123.41 585.96L1122.16 534.33L1149.03 490.18C1149.03 490.18 1141.83 476.41 1142.46 470.18C1143.09 463.95 1144.33 459.23 1129 457.04C1129 457.04 1116.07 455.11 1108.45 449.84C1103.92 446.696 1098.97 444.205 1093.75 442.44C1093.75 442.44 1089.45 434.44 1086.46 437.18C1086.46 437.18 1089.46 448.49 1089.21 450.18C1088.96 451.87 1089.68 459.51 1090.15 460.3C1090.62 461.09 1096.88 497.9 1090.51 511.04C1090.51 511.04 1081.16 546.47 1074.51 553.18C1067.86 559.89 1053.24 513.34 1053.24 513.34C1053.24 513.34 1045.52 471.82 1046.77 465.98C1048.02 460.14 1048.93 438.96 1048.93 438.96Z" fill="#2F2E41"/>
<path d="M1071.25 575.71C1073.78 575.71 1075.84 573.655 1075.84 571.12C1075.84 568.585 1073.78 566.53 1071.25 566.53C1068.71 566.53 1066.66 568.585 1066.66 571.12C1066.66 573.655 1068.71 575.71 1071.25 575.71Z" fill="#3F3D56"/>
<path d="M1071.25 597.35C1073.78 597.35 1075.84 595.295 1075.84 592.76C1075.84 590.225 1073.78 588.17 1071.25 588.17C1068.71 588.17 1066.66 590.225 1066.66 592.76C1066.66 595.295 1068.71 597.35 1071.25 597.35Z" fill="#3F3D56"/>
<path d="M1071.25 575.71C1073.78 575.71 1075.84 573.655 1075.84 571.12C1075.84 568.585 1073.78 566.53 1071.25 566.53C1068.71 566.53 1066.66 568.585 1066.66 571.12C1066.66 573.655 1068.71 575.71 1071.25 575.71Z" fill="black"/>
<path d="M1071.25 597.35C1073.78 597.35 1075.84 595.295 1075.84 592.76C1075.84 590.225 1073.78 588.17 1071.25 588.17C1068.71 588.17 1066.66 590.225 1066.66 592.76C1066.66 595.295 1068.71 597.35 1071.25 597.35Z" fill="black"/>
<path opacity="0.1" d="M1112.5 866.3C1112.5 866.3 1131.34 867.76 1133.21 869.22C1135.08 870.68 1112.5 866.3 1112.5 866.3Z" fill="black" stroke="#6C63FF" stroke-miterlimit="10"/>
<path opacity="0.1" d="M1000.33 851.49C1000.33 851.49 1004.33 856.49 1002.63 858.79C1000.93 861.09 1000.33 851.49 1000.33 851.49Z" fill="black" stroke="#6C63FF" stroke-miterlimit="10"/>
<path opacity="0.1" d="M1005.13 869.52C1005.13 869.52 1012.43 864.72 1015.35 867.91C1018.27 871.1 1005.13 869.52 1005.13 869.52Z" fill="black" stroke="#6C63FF" stroke-miterlimit="10"/>
<path opacity="0.1" d="M1096.03 403.73C1096.04 406.23 1095.72 408.72 1095.09 411.14C1094.47 410.859 1093.96 410.396 1093.61 409.813C1093.26 409.231 1093.1 408.556 1093.15 407.88C1093.28 406.69 1094.07 405.6 1093.9 404.42C1093.65 402.6 1091.45 401.86 1090.29 400.42C1088.86 398.68 1089.17 396.15 1089.29 393.9C1089.41 391.65 1088.84 388.9 1086.73 388.13C1086.1 387.9 1085.41 387.88 1084.8 387.62C1083.14 386.92 1082.63 384.86 1081.52 383.44C1079.3 380.58 1074.89 380.64 1071.52 382C1070.05 382.703 1068.55 383.331 1067.02 383.88C1066.25 384.15 1065.44 384.259 1064.63 384.199C1063.82 384.138 1063.03 383.911 1062.31 383.53C1061.65 383.11 1061.12 382.53 1060.44 382.11C1058.18 380.75 1055.22 382.11 1053.26 383.86C1051.3 385.61 1049.73 387.96 1047.26 389.03C1046.15 389.53 1044.78 389.83 1044.26 390.91C1044 391.498 1043.89 392.14 1043.94 392.78C1043.94 396.67 1044.4 400.62 1043.59 404.43C1043.07 406.88 1041.35 409.66 1038.86 409.36C1038.55 409.314 1038.24 409.237 1037.95 409.13C1037.2 405.125 1037.29 401.007 1038.23 397.041C1039.16 393.074 1040.91 389.345 1043.36 386.093C1045.81 382.84 1048.92 380.135 1052.48 378.15C1056.04 376.166 1059.97 374.945 1064.03 374.567C1068.09 374.188 1072.18 374.66 1076.04 375.952C1079.91 377.245 1083.46 379.328 1086.47 382.071C1089.48 384.814 1091.89 388.155 1093.54 391.88C1095.19 395.606 1096.05 399.635 1096.05 403.71L1096.03 403.73Z" fill="black"/>
<path d="M1036.64 407.47C1037.39 407.64 1038.1 408.03 1038.87 408.13C1041.36 408.43 1043.08 405.65 1043.6 403.2C1044.41 399.39 1043.99 395.44 1043.96 391.55C1043.9 390.91 1044.01 390.267 1044.27 389.68C1044.84 388.6 1046.21 388.3 1047.27 387.8C1049.69 386.72 1051.27 384.42 1053.27 382.63C1055.27 380.84 1058.18 379.52 1060.44 380.88C1061.11 381.28 1061.65 381.88 1062.31 382.3C1063.03 382.675 1063.82 382.9 1064.63 382.96C1065.45 383.02 1066.26 382.915 1067.03 382.65C1068.58 382.19 1070.03 381.38 1071.52 380.77C1074.86 379.41 1079.28 379.36 1081.52 382.2C1082.63 383.63 1083.14 385.68 1084.8 386.38C1085.41 386.64 1086.1 386.67 1086.73 386.9C1088.84 387.69 1089.38 390.42 1089.29 392.67C1089.2 394.92 1088.9 397.45 1090.29 399.19C1091.45 400.61 1093.65 401.35 1093.9 403.19C1094.06 404.37 1093.28 405.47 1093.15 406.65C1093.12 407.089 1093.18 407.529 1093.32 407.945C1093.46 408.361 1093.68 408.745 1093.98 409.074C1094.27 409.403 1094.62 409.672 1095.02 409.863C1095.41 410.055 1095.84 410.166 1096.28 410.19C1098.88 410.19 1100.49 407.28 1102.92 406.35C1103.92 405.96 1105.13 405.9 1105.92 405.11C1106.21 404.73 1106.42 404.291 1106.53 403.823C1106.64 403.355 1106.64 402.87 1106.54 402.4C1106.05 398.57 1102.98 395.24 1103.31 391.4C1103.62 387.72 1107.03 384.51 1106.31 380.89C1105.94 379.555 1105.26 378.33 1104.31 377.32C1103.24 375.867 1101.84 374.686 1100.23 373.87C1098.84 373.27 1097.23 373.13 1095.96 372.4C1092.18 370.33 1092.19 364.93 1089.96 361.25C1089 359.729 1087.65 358.501 1086.04 357.7C1084.43 356.899 1082.63 356.557 1080.84 356.71C1078.03 356.99 1075.48 358.48 1072.7 358.98C1068.89 359.66 1065.03 358.41 1061.42 356.98C1057.81 355.55 1054.16 353.98 1050.29 353.98C1046.42 353.98 1042.23 355.98 1041.05 359.64C1040.43 361.64 1040.74 363.78 1040.26 365.79C1039.42 369.36 1036.26 371.9 1033.08 373.67C1030.89 374.89 1028.26 376.29 1028 378.78C1027.83 380.36 1028.7 381.78 1029.25 383.31C1030.19 385.898 1030.16 388.736 1029.19 391.31C1028.46 393.2 1027.24 394.86 1026.5 396.74C1025.97 398.016 1025.73 399.389 1025.77 400.768C1025.82 402.147 1026.15 403.501 1026.76 404.74C1027.23 405.643 1027.87 406.442 1028.66 407.087C1029.44 407.732 1030.35 408.209 1031.33 408.49C1033.3 408.96 1034.54 407.01 1036.64 407.47Z" fill="black"/>
<g opacity="0.1">
<path opacity="0.1" d="M1043.6 401.02C1043.08 403.47 1041.35 406.25 1038.86 405.95C1038.09 405.85 1037.39 405.46 1036.63 405.29C1034.54 404.83 1033.3 406.79 1031.33 406.29C1030.35 406.009 1029.44 405.532 1028.65 404.887C1027.87 404.243 1027.22 403.444 1026.75 402.54C1026.23 401.522 1025.91 400.411 1025.82 399.27C1025.62 401.041 1025.94 402.831 1026.75 404.42C1027.22 405.324 1027.87 406.123 1028.65 406.767C1029.44 407.412 1030.35 407.889 1031.33 408.17C1033.33 408.63 1034.54 406.67 1036.63 407.17C1037.36 407.425 1038.11 407.642 1038.86 407.82C1041.35 408.13 1043.08 405.35 1043.6 402.9C1044.01 400.735 1044.17 398.531 1044.08 396.33C1044.07 397.905 1043.91 399.476 1043.6 401.02V401.02Z" fill="black"/>
<path opacity="0.1" d="M1029.9 385.96C1030.03 384.321 1029.8 382.674 1029.24 381.13C1028.79 380.103 1028.4 379.047 1028.09 377.97C1028.05 378.138 1028.01 378.308 1027.99 378.48C1027.82 380.05 1028.7 381.48 1029.24 383.01C1029.59 383.96 1029.81 384.952 1029.9 385.96V385.96Z" fill="black"/>
<path opacity="0.1" d="M1106.3 380.69C1105.83 383.53 1103.53 386.2 1103.3 389.19C1103.24 389.702 1103.24 390.218 1103.3 390.73C1103.8 387.24 1106.89 384.15 1106.3 380.69Z" fill="black"/>
<path opacity="0.1" d="M1106.47 401.79C1106.39 402.208 1106.19 402.595 1105.9 402.91C1105.16 403.7 1103.9 403.76 1102.9 404.15C1100.47 405.08 1098.9 408.02 1096.26 407.99C1095.58 407.952 1094.94 407.71 1094.4 407.295C1093.86 406.881 1093.47 406.315 1093.26 405.67C1093.2 405.887 1093.15 406.107 1093.12 406.33C1093.09 406.768 1093.15 407.207 1093.29 407.622C1093.43 408.037 1093.66 408.419 1093.95 408.748C1094.24 409.076 1094.59 409.343 1094.99 409.534C1095.38 409.725 1095.81 409.836 1096.25 409.86C1098.86 409.86 1100.46 406.95 1102.89 406.03C1103.89 405.64 1105.11 405.58 1105.89 404.79C1106.18 404.41 1106.39 403.971 1106.5 403.503C1106.61 403.035 1106.61 402.55 1106.51 402.08C1106.5 401.96 1106.48 401.88 1106.47 401.79Z" fill="black"/>
<path opacity="0.1" d="M1093.93 400.96C1093.68 399.14 1091.48 398.4 1090.32 396.96C1089.61 396.014 1089.22 394.863 1089.22 393.68C1089.14 395.54 1089.17 397.44 1090.32 398.84C1091.47 400.24 1093.22 400.84 1093.78 402.28C1093.92 401.855 1093.97 401.406 1093.93 400.96V400.96Z" fill="black"/>
<path opacity="0.1" d="M1089.28 390.49C1089.36 388.24 1088.82 385.49 1086.71 384.72C1086.09 384.49 1085.4 384.46 1084.79 384.21C1083.13 383.51 1082.61 381.45 1081.51 380.03C1079.28 377.18 1074.87 377.23 1071.51 378.59C1070.01 379.2 1068.58 380.01 1067.02 380.47C1066.25 380.74 1065.44 380.849 1064.63 380.789C1063.82 380.728 1063.03 380.501 1062.31 380.12C1061.65 379.7 1061.11 379.12 1060.44 378.7C1058.17 377.34 1055.21 378.7 1053.26 380.45C1051.31 382.2 1049.73 384.54 1047.26 385.62C1046.14 386.12 1044.78 386.42 1044.2 387.5C1043.95 388.089 1043.84 388.731 1043.89 389.37C1043.89 389.76 1043.89 390.15 1043.89 390.54C1043.9 390.137 1044 389.742 1044.18 389.38C1044.76 388.3 1046.12 388 1047.24 387.5C1049.66 386.42 1051.24 384.12 1053.24 382.33C1055.24 380.54 1058.15 379.22 1060.42 380.58C1061.09 380.98 1061.63 381.58 1062.29 381.99C1063.01 382.373 1063.8 382.602 1064.61 382.662C1065.42 382.723 1066.23 382.613 1067 382.34C1068.53 381.796 1070.03 381.172 1071.49 380.47C1074.84 379.11 1079.25 379.05 1081.49 381.9C1082.59 383.32 1083.11 385.38 1084.77 386.08C1085.38 386.34 1086.07 386.37 1086.69 386.6C1088.4 387.24 1089.08 389.16 1089.23 391.06L1089.28 390.49Z" fill="black"/>
</g>
<g opacity="0.1">
<path opacity="0.1" d="M1040.03 400.96C1040.09 399.3 1040.68 397.704 1041.72 396.411C1042.77 395.118 1044.2 394.198 1045.81 393.79C1050.27 392.7 1054.95 392.912 1059.29 394.4C1068.78 397.54 1058.09 408.84 1058.09 408.84C1058.09 408.84 1050.98 415.84 1044.35 410.95C1042.39 409.47 1041.02 407.344 1040.48 404.95C1040.16 403.646 1040 402.304 1040.03 400.96V400.96Z" fill="black"/>
<path opacity="0.1" d="M1092.2 400.96C1092.14 399.299 1091.55 397.702 1090.5 396.408C1089.46 395.115 1088.02 394.196 1086.41 393.79C1081.95 392.702 1077.28 392.914 1072.94 394.4C1063.45 397.54 1074.14 408.84 1074.14 408.84C1074.14 408.84 1081.24 415.84 1087.88 410.95C1089.84 409.47 1091.21 407.344 1091.75 404.95C1092.07 403.646 1092.23 402.304 1092.2 400.96Z" fill="black"/>
<path opacity="0.1" d="M1057.5 393.48V393.95H1074.83V393.39L1057.5 393.48Z" fill="black"/>
<path opacity="0.1" d="M1063.03 398.49H1063.58V396.9C1063.58 396.9 1065.34 395.53 1068.26 396.9V398.32H1069.26V397.39H1068.77C1068.77 397.39 1068.97 395.46 1065.71 395.77C1065.71 395.77 1063.09 395.52 1063.15 397.18H1062.55L1063.03 398.49Z" fill="black"/>
</g>
<path d="M1040.03 400.31C1040.09 398.65 1040.68 397.054 1041.72 395.761C1042.77 394.468 1044.2 393.548 1045.81 393.14C1050.27 392.057 1054.95 392.269 1059.29 393.75C1068.78 396.9 1058.09 408.19 1058.09 408.19C1058.09 408.19 1050.98 415.19 1044.35 410.3C1042.39 408.824 1041.02 406.696 1040.48 404.3C1040.15 402.996 1040 401.654 1040.03 400.31V400.31Z" fill="black"/>
<path d="M1092.2 400.31C1092.14 398.649 1091.55 397.052 1090.5 395.758C1089.46 394.465 1088.02 393.546 1086.41 393.14C1081.95 392.057 1077.28 392.269 1072.94 393.75C1063.45 396.9 1074.14 408.19 1074.14 408.19C1074.14 408.19 1081.24 415.19 1087.88 410.3C1089.84 408.824 1091.21 406.696 1091.75 404.3C1092.08 402.996 1092.23 401.654 1092.2 400.31Z" fill="black"/>
<path d="M1057.5 392.85V393.33H1074.83V392.76L1057.5 392.85Z" fill="black"/>
<path d="M1063.03 397.86H1063.58V396.27C1063.58 396.27 1065.34 394.91 1068.26 396.27V397.7H1069.26V396.76H1068.77C1068.77 396.76 1068.97 394.84 1065.71 395.14C1065.71 395.14 1063.09 394.9 1063.15 396.55H1062.55L1063.03 397.86Z" fill="black"/>
</g>
<defs>
<linearGradient id="paint0_linear" x1="720" y1="0" x2="720" y2="1024" gradientUnits="userSpaceOnUse">
<stop stop-color="white" stop-opacity="0"/>
<stop offset="1" stop-color="white" stop-opacity="0"/>
</linearGradient>
<linearGradient id="paint1_linear" x1="145" y1="864" x2="1091" y2="278" gradientUnits="userSpaceOnUse">
<stop offset="0.113306" stop-color="#74276C"/>
<stop offset="0.695466" stop-color="#C53364"/>
<stop offset="1" stop-color="#FD8263"/>
</linearGradient>
<linearGradient id="paint2_linear" x1="738.3" y1="748.08" x2="738.3" y2="209.75" gradientUnits="userSpaceOnUse">
<stop stop-color="#808080" stop-opacity="0.25"/>
<stop offset="0.54" stop-color="#808080" stop-opacity="0.12"/>
<stop offset="1" stop-color="#808080" stop-opacity="0.1"/>
</linearGradient>
<linearGradient id="paint3_linear" x1="184181" y1="483535" x2="184181" y2="163900" gradientUnits="userSpaceOnUse">
<stop stop-color="#808080" stop-opacity="0.25"/>
<stop offset="0.54" stop-color="#808080" stop-opacity="0.12"/>
<stop offset="1" stop-color="#808080" stop-opacity="0.1"/>
</linearGradient>
<clipPath id="clip0">
<rect width="1440" height="1024" fill="white"/>
</clipPath>
</defs>
</svg>
