<svg id="Layer_1" data-name="Layer 1" xmlns="http://www.w3.org/2000/svg" xmlns:xlink="http://www.w3.org/1999/xlink" viewBox="0 0 552.3 854.91"><defs><style>.cls-1{fill:url(#linear-gradient);}.cls-2{fill:url(#linear-gradient-2);}.cls-3{fill:url(#linear-gradient-3);}.cls-4{fill:none;}</style><linearGradient id="linear-gradient" x1="1040.66" y1="762.86" x2="732.08" y2="228.38" gradientUnits="userSpaceOnUse"><stop offset="0" stop-color="#274b74"/><stop offset="0.34" stop-color="#8233c5"/><stop offset="0.68" stop-color="#e963fd"/><stop offset="0.97" stop-color="#e900fd"/></linearGradient><linearGradient id="linear-gradient-2" x1="1003.66" y1="646.77" x2="675.18" y2="836.41" gradientUnits="userSpaceOnUse"><stop offset="0.04" stop-color="#de001e"/><stop offset="0.41" stop-color="#ec4b2c"/><stop offset="0.64" stop-color="#fc9d3a"/><stop offset="0.88" stop-color="#ffe100"/></linearGradient><linearGradient id="linear-gradient-3" x1="815.31" y1="360.06" x2="1103.85" y2="193.47" gradientUnits="userSpaceOnUse"><stop offset="0" stop-color="#de001e"/><stop offset="0.34" stop-color="#ec4b2c"/><stop offset="0.7" stop-color="#fc9d3a"/><stop offset="1" stop-color="#ffe100"/></linearGradient></defs><title>singco-logo</title><path class="cls-1" d="M1128.32,817.2C1074.86,660.86,929.18,622.75,922.37,621l-.25-.06c-14.93-4.74-31.45-6.35-45.56-8.21C785,600.76,703.27,555,660.05,470.63a257.39,257.39,0,0,1-26.35-88.08c-12.18-106.93,43.46-207.42,130.57-258.69-12.42,63.56-5.35,131.78,24.91,189.5a239.13,239.13,0,0,0,63,76.36c32,25.38,68.08,23,105.89,34a318.27,318.27,0,0,1,90.78,42.93c55.19,37.8,98.55,94.16,112.62,160.33C1175.16,691.54,1161.8,760.47,1128.32,817.2Z" transform="translate(-614.62 -88.4)"/><path class="cls-2" d="M1128.32,817.2c-21.83,37.08-52.27,69-89.34,91-93.8,55.82-223.13,44.11-304.82-28.27C656.42,811.1,625.08,700.63,614.89,600.68c-.33-3.34-.62-6.89.75-10a8,8,0,0,1,3.58-3.84,5.52,5.52,0,0,1,4.52-.43c2,.77,3.35,2.77,4.44,4.68,8.2,14.24,13.18,30.1,20.05,45.06,19.18,41.81,52.92,75.9,91.84,100.43,55.79,35.16,136.72,51.91,190.41,3.36,24.2-21.88,46.34-68.13,24-98.06-7.88-10.55-19.41-16.85-32.09-20.88C929.18,622.75,1074.86,660.86,1128.32,817.2Z" transform="translate(-614.62 -88.4)"/><path class="cls-3" d="M1161.67,423.85c-6.91,10.63-24.12,8.92-33.33.2s-12.86-21.59-17.22-33.5c-30-82.09-139-171-229.38-124.12-38.67,20.1-66.75,80.72-36,118.16-40-34.55-109.45-117.43-81.45-260.73A254.09,254.09,0,0,1,903.73,88.6c72.52,2.86,150.24,39.92,194,98.71a347.25,347.25,0,0,1,66.9,178.94C1165.78,381.47,1170.49,410.24,1161.67,423.85Z" transform="translate(-614.62 -88.4)"/><path class="cls-4" d="M871.33,403.59a188.12,188.12,0,0,1-25.61-19" transform="translate(-614.62 -88.4)"/><path class="cls-4" d="M1128.59,818c-.09-.25-.17-.52-.27-.77" transform="translate(-614.62 -88.4)"/></svg>