<svg width="1440" height="1024" viewBox="0 0 1440 1024" fill="none" xmlns="http://www.w3.org/2000/svg">
<g clip-path="url(#clip0)">
<path d="M956.103 162.417C1025.29 259.787 1026.88 390.113 1060.28 521.189C1092.88 653.013 1157.29 785.586 1115.14 867.227C1073 948.868 925.885 979.578 801.038 985.57C676.191 992.311 574.404 974.335 462.28 950.366C349.361 927.147 226.104 897.187 168.849 822.287C111.594 747.387 121.136 627.547 143.402 510.703C165.668 393.109 201.452 278.512 281.768 182.64C362.879 86.7676 488.522 9.62043 619.731 4.37742C750.94 -1.61459 886.92 64.2975 956.103 162.417Z" fill="url(#paint0_linear)"/>
<path d="M224.31 375.235C226.67 375.235 228.583 373.376 228.583 371.083C228.583 368.79 226.67 366.932 224.31 366.932C221.95 366.932 220.037 368.79 220.037 371.083C220.037 373.376 221.95 375.235 224.31 375.235Z" fill="white"/>
<path d="M240.528 375.235C242.887 375.235 244.8 373.376 244.8 371.083C244.8 368.79 242.887 366.932 240.528 366.932C238.168 366.932 236.255 368.79 236.255 371.083C236.255 373.376 238.168 375.235 240.528 375.235Z" fill="white"/>
<path d="M256.745 375.235C259.105 375.235 261.018 373.376 261.018 371.083C261.018 368.79 259.105 366.932 256.745 366.932C254.386 366.932 252.473 368.79 252.473 371.083C252.473 373.376 254.386 375.235 256.745 375.235Z" fill="white"/>
<path d="M1015 321.448H212V758.985H1015V321.448Z" fill="#121212"/>
<path d="M283.225 405.776C282.513 405.777 281.831 406.052 281.328 406.541C280.825 407.03 280.542 407.693 280.541 408.384V540.191C280.542 540.882 280.825 541.545 281.328 542.034C281.831 542.523 282.513 542.798 283.225 542.798H439.873C440.585 542.798 441.267 542.523 441.77 542.034C442.273 541.545 442.556 540.882 442.557 540.191V408.384C442.556 407.693 442.273 407.03 441.77 406.541C441.267 406.052 440.585 405.777 439.873 405.776H283.225Z" fill="#E6E6E6"/>
<path d="M534.744 406.2C534.032 406.201 533.35 406.476 532.846 406.965C532.343 407.454 532.06 408.116 532.059 408.808V540.191C532.06 540.882 532.343 541.545 532.846 542.034C533.35 542.523 534.032 542.798 534.744 542.798H690.893C691.605 542.797 692.286 542.522 692.789 542.033C693.292 541.545 693.575 540.882 693.576 540.191V408.808C693.575 408.117 693.292 407.454 692.789 406.965C692.286 406.476 691.605 406.201 690.893 406.2H534.744Z" fill="#E6E6E6"/>
<path d="M783.625 404.823C782.914 404.824 782.232 405.099 781.729 405.588C781.226 406.077 780.943 406.74 780.943 407.431V540.191C780.943 540.882 781.226 541.545 781.729 542.033C782.232 542.522 782.914 542.797 783.625 542.798H941.398C942.11 542.797 942.792 542.522 943.295 542.033C943.797 541.545 944.08 540.882 944.081 540.191V407.431C944.08 406.74 943.797 406.077 943.295 405.588C942.792 405.099 942.11 404.824 941.398 404.823H783.625Z" fill="#E6E6E6"/>
<path d="M286.089 608.042C284.619 608.045 283.21 608.614 282.172 609.625C281.134 610.635 280.551 612.005 280.551 613.433C280.551 614.861 281.134 616.231 282.172 617.242C283.21 618.252 284.619 618.822 286.089 618.824H433.369C434.839 618.822 436.247 618.252 437.285 617.242C438.324 616.231 438.907 614.861 438.907 613.433C438.907 612.005 438.324 610.635 437.285 609.625C436.247 608.614 434.839 608.045 433.369 608.042H286.089Z" fill="#E6E6E6"/>
<path d="M286.088 633.685C284.619 633.688 283.21 634.257 282.172 635.268C281.133 636.279 280.55 637.649 280.55 639.077C280.55 640.505 281.133 641.875 282.172 642.886C283.21 643.897 284.619 644.466 286.088 644.468H352.401C353.87 644.466 355.279 643.897 356.317 642.886C357.356 641.875 357.939 640.505 357.939 639.077C357.939 637.649 357.356 636.279 356.317 635.268C355.279 634.257 353.87 633.688 352.401 633.685H286.088Z" fill="#FFB300"/>
<path d="M540.31 608.042C538.841 608.045 537.432 608.614 536.394 609.625C535.356 610.635 534.773 612.005 534.773 613.433C534.773 614.861 535.356 616.231 536.394 617.242C537.432 618.252 538.841 618.822 540.31 618.824H687.591C689.061 618.822 690.469 618.252 691.507 617.242C692.546 616.231 693.129 614.861 693.129 613.433C693.129 612.005 692.546 610.635 691.507 609.625C690.469 608.614 689.061 608.045 687.591 608.042H540.31Z" fill="#E6E6E6"/>
<path d="M540.31 633.685C538.841 633.688 537.432 634.257 536.394 635.268C535.355 636.279 534.772 637.649 534.772 639.077C534.772 640.505 535.355 641.875 536.394 642.886C537.432 643.897 538.841 644.466 540.31 644.468H606.623C608.093 644.466 609.502 643.897 610.54 642.886C611.578 641.875 612.162 640.505 612.162 639.077C612.162 637.649 611.578 636.279 610.54 635.268C609.502 634.257 608.093 633.688 606.623 633.685H540.31Z" fill="#FFB300"/>
<path d="M788.179 608.042C786.709 608.045 785.3 608.614 784.262 609.625C783.224 610.635 782.641 612.005 782.641 613.433C782.641 614.861 783.224 616.231 784.262 617.242C785.3 618.252 786.709 618.822 788.179 618.824H935.459C936.929 618.822 938.337 618.252 939.376 617.242C940.414 616.231 940.997 614.861 940.997 613.433C940.997 612.005 940.414 610.635 939.376 609.625C938.337 608.614 936.929 608.045 935.459 608.042H788.179Z" fill="#E6E6E6"/>
<path d="M286.089 581.558C284.619 581.561 283.21 582.13 282.172 583.141C281.134 584.151 280.551 585.521 280.551 586.949C280.551 588.377 281.134 589.747 282.172 590.758C283.21 591.768 284.619 592.338 286.089 592.34H433.369C434.839 592.338 436.247 591.768 437.285 590.758C438.324 589.747 438.907 588.377 438.907 586.949C438.907 585.521 438.324 584.151 437.285 583.141C436.247 582.13 434.839 581.561 433.369 581.558H286.089Z" fill="#E6E6E6"/>
<path d="M540.31 581.558C538.841 581.561 537.432 582.13 536.394 583.141C535.356 584.151 534.773 585.521 534.773 586.949C534.773 588.377 535.356 589.747 536.394 590.758C537.432 591.768 538.841 592.338 540.31 592.34H687.591C689.061 592.338 690.469 591.768 691.507 590.758C692.546 589.747 693.129 588.377 693.129 586.949C693.129 585.521 692.546 584.151 691.507 583.141C690.469 582.13 689.061 581.561 687.591 581.558H540.31Z" fill="#E6E6E6"/>
<path d="M788.179 581.558C786.709 581.561 785.3 582.13 784.262 583.141C783.224 584.151 782.641 585.521 782.641 586.949C782.641 588.377 783.224 589.747 784.262 590.758C785.3 591.768 786.709 592.338 788.179 592.34H935.459C936.929 592.338 938.337 591.768 939.376 590.758C940.414 589.747 940.997 588.377 940.997 586.949C940.997 585.521 940.414 584.151 939.376 583.141C938.337 582.13 936.929 581.561 935.459 581.558H788.179Z" fill="#E6E6E6"/>
<path d="M788.179 633.685C786.709 633.688 785.3 634.257 784.262 635.268C783.224 636.279 782.64 637.649 782.64 639.077C782.64 640.505 783.224 641.875 784.262 642.886C785.3 643.897 786.709 644.466 788.179 644.468H854.49C855.96 644.466 857.368 643.897 858.407 642.886C859.445 641.875 860.028 640.505 860.028 639.077C860.028 637.649 859.445 636.279 858.407 635.268C857.368 634.257 855.96 633.688 854.49 633.685H788.179Z" fill="#FFB300"/>
<path d="M1086.22 936.14C1092.46 933.49 1097.09 931.28 1098.34 930.14C1103.35 925.59 1147.22 885.87 1135.81 923.77C1124.4 961.67 1098.81 976.3 1098.81 976.3C1098.81 976.3 1070.94 1001.88 1065 1015.13C1059.06 1028.38 1041.26 1024.73 1033.94 1015.13C1026.62 1005.53 1003.79 1009.19 1003.79 1009.19L969.06 1011.93C969.06 1011.93 906.11 1020.26 884.99 1005.65C863.87 991.04 849.8 990.92 849.8 990.92C849.8 990.92 833.36 998.23 814.64 999.14C805.763 999.747 796.943 1001 788.25 1002.9C788.04 1003.82 787.704 1004.71 787.25 1005.54H786.88C786.677 1006.5 786.341 1007.42 785.88 1008.28C785.88 1008.28 760.29 1009.16 742.25 1005.99C724.21 1002.82 684.06 1007.82 684.06 1007.82C684.06 1007.82 667.53 1007.83 630.98 1011.25C594.43 1014.67 526.59 1011.25 526.59 1011.25C526.59 1011.25 492.28 1007.8 485.7 1000.25C479.12 992.7 471.77 992.24 460.12 982.25C448.47 972.26 446.87 943.14 446.87 943.14C446.87 943.14 444.17 919.47 484.6 910.58C525.03 901.69 552.67 920.69 552.67 920.69C552.68 920.67 552.87 920.39 553.15 919.92H552.78L553.24 919.75C554.36 917.87 556.73 913.38 556.61 909.18C556.4 903.65 562.61 889.65 562.61 889.65L562.74 889.59C562.57 889.053 562.57 888.477 562.74 887.94C564.97 880.91 572.33 867.72 572.33 867.72C572.33 867.72 577.64 864.64 577.47 861.72C577.3 858.8 587.24 850.24 587.24 850.24C587.24 850.24 593.4 845.13 592.55 840.82C591.7 836.51 598.55 829.51 598.55 829.51L611.55 803.98C611.55 803.98 622.52 780.2 630.06 779.14C637.6 778.08 651.48 756.11 651.48 756.11C651.48 756.11 676.15 736.22 676.32 732.11C676.49 728 688.66 720.63 688.66 720.63C688.66 720.63 688.71 721.09 688.87 721.85L690.29 720.72C698.94 713.85 711.76 704.89 721.44 703.5C721.44 703.5 734.57 695.2 743.37 686.6C746.63 683.44 780.81 667.85 810.2 656.6C834.69 647.218 860.288 641.037 886.36 638.21H886.53H886.85L985.97 659.14C996.852 661.441 1007.23 665.697 1016.59 671.7C1019.39 673.49 1022.44 675.49 1025.64 677.64C1023.93 676.52 1022.2 675.4 1020.7 674.44C1019.2 673.48 1017.67 672.58 1016.12 671.71C1043.05 688.97 1093.95 725.43 1065.42 738.2C1027.5 755.19 1004.65 692.6 1004.65 692.6C1004.65 692.6 992.76 681.6 958.06 684.37C923.36 687.14 867.24 678.01 867.24 678.01C867.24 678.01 846.24 697.64 819.24 699.01C819.24 699.01 799.6 705.86 796.86 711.34C794.661 715.718 790.729 724.758 789.222 728.22L789.14 728.41L790.01 728.24L788.84 729.13C788.7 729.45 788.64 729.61 788.64 729.61L795.06 731.45C798.729 732.373 802.497 732.84 806.28 732.84C807.21 732.823 808.139 732.75 809.06 732.62C810.403 722.297 815.45 712.814 823.263 705.934C831.075 699.054 841.12 695.247 851.53 695.22C853.174 695.219 854.816 695.309 856.45 695.49C856.9 695.54 857.35 695.61 857.79 695.68C857.86 695.56 857.86 695.36 857.86 695.32V695.21C858.26 693.48 859.53 692.89 861.05 692.59C861.83 692.44 862.67 692.35 863.5 692.24C864.19 692.16 864.84 692.05 865.5 692.05H866.01C866.82 692.05 867.62 692 868.44 692.05C872.642 692.197 876.751 693.324 880.44 695.34C881.81 696.08 883.12 696.94 884.53 697.58C887.86 699.08 891.61 699.27 895.08 700.37C902.03 702.55 907.44 708.25 910.86 714.66C914.28 721.07 916 728.26 917.67 735.33C918.163 736.931 918.293 738.622 918.05 740.28C917.885 740.981 917.619 741.655 917.26 742.28C917.15 742.47 917.02 742.66 916.91 742.86C918.268 743.288 919.578 743.854 920.82 744.55C924.592 746.701 927.802 749.713 930.19 753.34C934.36 759.62 936.14 767.22 936.66 774.75C936.982 777.953 936.82 781.185 936.18 784.34V784.48L936.12 784.76C936.04 785.06 935.97 785.36 935.87 785.66L935.69 786.21C935.48 786.82 935.26 787.43 935.02 788.03C934.61 789.09 934.16 790.09 933.73 791.09C933.077 792.557 932.581 794.089 932.25 795.66C931.29 800.88 933.37 806.14 935.06 811.14C936.686 815.909 937.982 820.784 938.94 825.73C939.92 830.89 940.47 836.38 939.28 841.38C939.282 841.353 939.282 841.327 939.28 841.3C939.24 841.5 939.18 841.7 939.13 841.9L939.07 842.14L939.01 842.37C938.929 842.703 938.84 842.988 938.75 843.275L938.72 843.37C938.68 843.49 938.69 843.48 938.61 843.74C938.53 844 938.42 844.26 938.32 844.53C938.089 845.106 937.828 845.67 937.54 846.22L937.41 846.48C937.3 846.7 937.17 846.93 937.06 847.14C937.024 847.199 936.984 847.256 936.94 847.31L936.69 847.75C936.52 848.04 936.38 848.25 936.16 848.62C935.94 848.99 935.71 849.36 935.47 849.72L935.38 849.85C934.67 850.94 933.92 852.02 933.19 853.09C932.92 853.48 932.66 853.88 932.4 854.27C932.01 854.87 931.64 855.48 931.28 856.09C931.14 856.32 931 856.56 930.88 856.79C930.62 857.21 930.37 857.73 930.14 858.21C929.61 859.322 929.194 860.484 928.9 861.68C927.35 868.13 930.1 874.75 932.35 881C936.89 893.67 939.38 907.84 935.09 920.49C935 920.789 934.891 921.088 934.781 921.387L934.78 921.39L934.42 922.31C934.38 922.41 934.31 922.51 934.31 922.6C934.08 923.18 933.81 923.76 933.52 924.33V924.4C938.547 926.568 943.407 929.105 948.06 931.99C958.841 933.535 969.438 936.165 979.69 939.84C985.54 941.92 992.71 943.84 999.2 943.84C1013.36 943.84 1086.45 924.65 1086.45 934.25C1086.32 935.187 1085.82 936.035 1085.08 936.62L1086.22 936.14Z" fill="url(#paint1_linear)"/>
<path d="M1060.96 739.72C1023.66 756.43 1001.19 694.87 1001.19 694.87C1001.19 694.87 989.52 684.08 955.36 686.78C921.2 689.48 865.94 680.48 865.94 680.48C865.94 680.48 845.27 699.82 818.76 701.14C818.76 701.14 799.44 707.88 796.76 713.28C794.57 717.66 790.59 726.81 789.17 730.06C789.088 730.302 788.991 730.54 788.88 730.77C788.74 731.08 788.68 731.25 788.68 731.25L787.57 731.77L765.31 742.46L734.76 751.01L715.43 753.25L682.63 730.52C682.63 730.52 686.42 726.98 691.99 722.52C700.5 715.77 713.11 706.95 722.63 705.59C722.63 705.59 735.55 697.42 744.2 688.97C747.41 685.82 781.03 670.49 809.93 659.42C834.018 650.195 859.196 644.115 884.84 641.33L982.33 661.92C993.041 664.178 1003.26 668.355 1012.48 674.25C1038.93 691.28 1089.06 727.14 1060.96 739.72Z" fill="#FFC1C7"/>
<g opacity="0.1">
<path opacity="0.1" d="M687.13 733.25C687.13 733.25 690.92 729.7 696.49 725.25C705 718.5 717.61 709.68 727.13 708.32C727.13 708.32 740.05 700.15 748.7 691.7C751.91 688.54 785.53 673.22 814.43 662.15C838.521 652.947 863.699 646.894 889.34 644.14L986.83 664.72C997.539 666.98 1007.75 671.16 1016.97 677.06C1018.52 678.053 1020.14 679.103 1021.83 680.21C1018.68 678.09 1015.68 676.12 1012.93 674.36C1003.71 668.465 993.498 664.288 982.79 662.03L885.3 641.44C859.656 644.223 834.478 650.303 810.39 659.53C781.48 670.6 747.86 685.93 744.66 689.08C736 697.53 723.09 705.7 723.09 705.7C713.57 707.06 700.95 715.88 692.45 722.63C686.88 727.06 683.09 730.63 683.09 730.63L715.89 753.36H716.02L687.13 733.25Z" fill="black"/>
<path opacity="0.1" d="M1005.72 697.56C1004.49 696.561 1003.15 695.711 1001.72 695.03C1002.62 697.41 1014 726.89 1033.41 738.21C1015.71 724.92 1005.72 697.56 1005.72 697.56Z" fill="black"/>
</g>
<path d="M936.65 842.01C936.526 842.527 936.376 843.038 936.2 843.54C936.12 843.8 936.01 844.06 935.92 844.31C935.666 844.935 935.379 845.546 935.06 846.14C934.93 846.41 934.78 846.68 934.65 846.94C934.618 847 934.581 847.056 934.54 847.11C934.4 847.37 934.26 847.61 934.11 847.85C933.11 849.55 931.95 851.17 930.84 852.85C930.47 853.39 930.1 853.94 929.75 854.5C929.687 854.614 929.617 854.725 929.54 854.83C929.35 855.14 929.15 855.47 928.97 855.83C928.79 856.19 928.65 856.37 928.51 856.64C928.37 856.91 928.35 856.92 928.28 857.06L927.85 857.89C927.348 858.932 926.95 860.021 926.66 861.14C925.12 867.49 927.84 874 930.05 880.14C934.51 892.6 936.97 906.54 932.75 918.98C932.65 919.27 932.55 919.57 932.44 919.87C932.33 920.17 932.14 920.66 931.98 921.05C931.74 921.65 931.47 922.24 931.17 922.83C928.89 927.27 924.98 931.26 920.17 930.83C913.56 930.25 910.35 922.15 904.33 919.39C899.1 916.99 892.49 918.95 887.56 915.99C887.971 914.642 888.531 913.344 889.23 912.12C890.12 910.48 891.23 908.91 892.23 907.35C893.908 905.046 895.254 902.518 896.23 899.84C896.422 899.243 896.579 898.635 896.7 898.02C896.706 897.974 896.706 897.927 896.7 897.88C896.75 897.57 896.81 897.28 896.85 896.97C896.89 896.66 896.93 896.38 896.96 896.06C896.965 896.007 896.965 895.953 896.96 895.9C896.96 895.55 896.96 895.2 897.03 894.84C897.04 891.461 896.705 888.091 896.03 884.78C894.783 877.26 893.53 869.74 892.27 862.22C891.35 856.72 890.45 850.96 892.15 845.65C892.28 845.27 892.42 844.89 892.56 844.52C892.7 844.15 892.87 843.77 893.04 843.41C894.022 841.364 895.18 839.406 896.5 837.56C899.673 832.893 903.077 828.377 906.71 824.01C909.17 821.01 911.81 818.01 912.71 814.27C912.807 813.909 912.881 813.541 912.93 813.17C913.51 809.56 912.49 805.96 911.29 802.35C911.137 801.93 910.997 801.51 910.87 801.09C910.45 799.85 910.03 798.6 909.67 797.33C909.55 796.92 909.44 796.5 909.33 796.08C909.117 795.239 908.947 794.388 908.82 793.53C908.687 792.683 908.613 791.827 908.6 790.97C908.6 790.57 908.6 790.16 908.6 789.76C908.6 789.36 908.6 789.16 908.68 788.85C908.76 788.54 908.77 788.21 908.82 787.85C908.87 787.49 908.9 787.37 908.95 787.13C909 786.89 909.1 786.4 909.2 786.05C909.257 785.762 909.334 785.478 909.43 785.2C909.48 784.97 909.55 784.74 909.61 784.52L909.87 783.72L910.28 782.56C910.41 782.18 910.56 781.79 910.71 781.41C911.46 779.41 912.32 777.41 913.07 775.49C913.492 774.38 913.855 773.248 914.16 772.1C914.16 772.1 914.16 772.1 914.16 772.1C914.16 771.89 914.27 771.66 914.32 771.44C914.382 771.219 914.432 770.996 914.47 770.77C914.54 770.493 914.593 770.213 914.63 769.93C914.7 769.56 914.77 769.17 914.81 768.79C914.85 768.41 914.89 768.02 914.92 767.63C914.95 767.24 914.92 766.86 914.92 766.48C914.937 765.125 914.745 763.776 914.35 762.48C914.201 761.951 914.007 761.436 913.77 760.94V760.94C913.596 760.598 913.406 760.264 913.2 759.94C911.92 757.86 909.93 756.27 908.77 754.1C908.086 752.768 907.742 751.287 907.77 749.79C907.766 749.382 907.793 748.974 907.85 748.57C907.91 748.156 908.004 747.748 908.13 747.35C908.171 747.19 908.225 747.032 908.29 746.88C908.363 746.713 908.433 746.553 908.5 746.4C908.598 746.2 908.708 746.006 908.83 745.82C908.93 745.69 909.02 745.55 909.12 745.43C910.18 744.09 911.88 743.43 914.21 744.11L914.78 744.3C916.112 744.728 917.399 745.287 918.62 745.97C922.33 748.085 925.489 751.045 927.84 754.61C931.94 760.79 933.69 768.27 934.2 775.67C934.51 778.823 934.351 782.004 933.73 785.11C933.73 785.24 933.66 785.39 933.64 785.52C933.56 785.82 933.49 786.12 933.39 786.41C932.783 788.225 932.082 790.008 931.29 791.75C931.29 791.75 931.29 791.75 931.29 791.75C930.648 793.195 930.159 794.703 929.83 796.25C928.89 801.39 930.94 806.52 932.6 811.47C934.173 816.169 935.422 820.97 936.34 825.84C937.5 831.21 938.06 836.84 936.65 842.01Z" fill="#965D7B"/>
<g opacity="0.1">
<path opacity="0.1" d="M931.43 791.77C932.227 790.022 932.931 788.232 933.54 786.41C933.67 785.98 933.79 785.55 933.89 785.11C932.869 787.25 932.046 789.48 931.43 791.77Z" fill="black"/>
<path opacity="0.1" d="M913.41 759.94C915.63 763.54 915.41 767.94 914.31 772.17C914.39 771.95 914.48 771.74 914.56 771.52C916.47 766.52 917.56 760.52 914.76 755.9C913.47 753.82 911.47 752.22 910.32 750.06C909.587 748.631 909.243 747.034 909.32 745.43C907.63 747.53 907.51 751.29 909.02 754.11C910.12 756.27 912.12 757.86 913.41 759.94Z" fill="black"/>
<path opacity="0.1" d="M928.06 857.14C928.01 857.36 927.97 857.58 927.93 857.81C930.13 853.14 934.01 849.18 935.93 844.34C936.334 843.325 936.652 842.278 936.88 841.21C934.31 846.72 929.44 851.19 928.06 857.14Z" fill="black"/>
<path opacity="0.1" d="M933.33 917.05C931.27 922.13 926.98 927.3 921.51 926.82C914.9 926.25 911.7 918.15 905.67 915.38C900.55 913.03 894.11 914.85 889.22 912.16C888.525 913.386 887.965 914.683 887.55 916.03C892.48 919.03 899.09 917.03 904.32 919.42C910.32 922.19 913.55 930.3 920.16 930.87C925.63 931.34 929.92 926.17 931.98 921.09C932.532 919.719 933.003 918.316 933.39 916.89L933.33 917.05Z" fill="black"/>
<path opacity="0.1" d="M896.11 884.82C896.84 889.2 897.56 893.75 896.7 898.06C897.036 897.339 897.326 896.597 897.57 895.84C899.11 891.01 898.29 885.78 897.46 880.78C896.213 873.26 894.96 865.737 893.7 858.21C892.89 853.32 892.09 848.21 893.12 843.44C892.778 844.171 892.481 844.923 892.23 845.69C890.53 851 891.44 856.75 892.35 862.25C893.61 869.783 894.863 877.307 896.11 884.82Z" fill="black"/>
<path opacity="0.1" d="M914.17 810.27C916.1 802.53 910.17 794.94 910.06 786.97C910.077 785.116 910.342 783.273 910.85 781.49C909.543 784.503 908.82 787.737 908.72 791.02C908.79 798.62 914.2 805.87 913.03 813.25C913.52 812.302 913.902 811.303 914.17 810.27V810.27Z" fill="black"/>
</g>
<path d="M1130.16 922.24C1118.93 959.53 1093.76 973.91 1093.76 973.91C1093.76 973.91 1066.35 999.08 1060.5 1012.14C1054.65 1025.2 1037.14 1021.58 1029.96 1012.14C1022.78 1002.7 1000.3 1006.31 1000.3 1006.31L966.14 1009C966.14 1009 904.24 1017.21 883.46 1002.83C862.68 988.45 848.86 988.34 848.86 988.34C848.86 988.34 832.68 995.52 814.27 996.43C805.524 997.013 796.834 998.243 788.27 1000.11C783.5 1001.11 779.33 1002.11 776.34 1002.82C773.35 1003.53 771.57 1004.06 771.57 1004.06L725.81 999.45L682.59 995.08L659.23 991.92L653.1 978.58L647.2 965.76L645.2 961.38L648 915.57H721.7C721.7 915.57 798.56 919.57 808.43 919.57H810.67C810.67 919.57 822.96 914.65 843.02 926.75C845.578 928.184 848.254 929.396 851.02 930.37C882.9 942.28 972.47 957.76 972.47 957.76L1030.47 954.16C1030.47 954.16 1063.08 942.28 1081.47 934.45C1087.6 931.83 1092.16 929.66 1093.38 928.55C1098.25 924.04 1141.39 884.94 1130.16 922.24Z" fill="#FFC1C7"/>
<path opacity="0.1" d="M673.33 960.6L676.88 973.24L664.74 979.82L653.11 978.54L647.21 965.72L645.21 961.34L648.01 915.53H721.66C706.29 916.91 673.33 960.6 673.33 960.6Z" fill="black"/>
<path d="M671.98 960.6L675.53 973.24L663.4 979.82L632.73 976.45L616.21 963.14C589.21 919.33 556.56 919.14 556.56 919.14C556.56 919.14 560.61 913.23 560.44 907.84C560.27 902.45 566.38 888.63 566.38 888.63L566.96 888.35C569.02 887.35 576.01 883.89 576.45 883.74C576.45 883.74 715.12 906.15 717.82 907C718.517 907.289 719.088 907.818 719.43 908.49C721 910.95 721.7 915.49 721.7 915.49C707.06 914.14 671.98 960.6 671.98 960.6Z" fill="#264632"/>
<path d="M835.84 773.5C831.766 773.415 827.691 773.672 823.66 774.27C816.95 775.36 810.52 777.91 813.37 783.84C818.76 795.07 784.61 814.84 784.61 814.84L736.97 845.4L707.31 800.46L722.6 764.06L765.28 742.49L788.66 731.27C788.66 731.27 797.92 734.64 806.06 734.45C809.82 734.37 813.35 733.53 815.62 731.27C822.8 724.08 835.84 773.5 835.84 773.5Z" fill="#FFC1C7"/>
<path opacity="0.1" d="M835.84 773.5C831.766 773.415 827.691 773.672 823.66 774.27C818.115 770.376 813.592 765.202 810.472 759.188C807.353 753.173 805.729 746.495 805.74 739.72C805.735 737.958 805.842 736.198 806.06 734.45C809.82 734.37 813.35 733.53 815.62 731.27C822.8 724.08 835.84 773.5 835.84 773.5Z" fill="black"/>
<path d="M892.9 739.72C892.901 745.267 891.81 750.76 889.688 755.885C887.567 761.011 884.457 765.668 880.535 769.591C876.614 773.514 871.958 776.627 866.834 778.751C861.71 780.875 856.217 781.969 850.67 781.97C848.713 781.971 846.758 781.834 844.82 781.56C834.217 780.09 824.568 774.65 817.822 766.339C811.077 758.028 807.738 747.466 808.481 736.788C809.224 726.11 813.993 716.112 821.825 708.815C829.656 701.519 839.966 697.467 850.67 697.48C852.287 697.484 853.903 697.574 855.51 697.75C865.804 698.944 875.301 703.879 882.194 711.617C889.088 719.355 892.898 729.357 892.9 739.72V739.72Z" fill="#FFC1C7"/>
<path opacity="0.1" d="M1081.63 935.27C1081.63 940.63 1053.14 951.52 1028.57 959.92C1011.34 965.666 993.217 968.297 975.06 967.69C973.592 967.614 972.121 967.746 970.69 968.08C963.95 969.87 876.33 949.2 876.33 949.2C876.33 949.2 858.44 940.9 851.04 930.35C882.92 942.26 972.49 957.74 972.49 957.74L1030.49 954.14C1030.49 954.14 1063.1 942.26 1081.49 934.43C1081.61 934.692 1081.66 934.983 1081.63 935.27V935.27Z" fill="black"/>
<path d="M817.41 787.98C817.41 787.98 823.7 804.51 831.79 808.55C839.88 812.59 856.05 828.77 854.71 849.89C854.71 849.89 852.01 855.74 860.55 867.89C869.09 880.04 889.76 906.53 889.76 906.53C889.76 906.53 931.99 921.36 945.47 930.35H945.52C956.119 931.872 966.536 934.469 976.61 938.1C982.37 940.1 989.42 942.03 995.8 942.03C1009.73 942.03 1081.63 923.16 1081.63 932.59C1081.63 937.96 1053.14 948.85 1028.56 957.25C1011.33 962.982 993.211 965.603 975.06 964.99C973.592 964.919 972.122 965.051 970.69 965.38C963.95 967.17 876.32 946.5 876.32 946.5C876.32 946.5 857.85 937.97 850.66 927.14C843.47 916.31 825.06 902.47 825.06 902.47C825.06 902.47 804.84 868.32 803.06 860.23C803.06 860.23 792.73 854.39 765.76 863.37C738.79 872.35 759.89 843.14 759.89 843.14L790 808.14L817.41 787.98Z" fill="#FFC1C7"/>
<path opacity="0.1" d="M825.95 800.47L816.56 777.63C807.812 783.184 799.665 789.632 792.25 796.87C781.01 808.1 773.37 814.87 767.98 816.19C762.59 817.51 744.17 826.89 736.53 807.61C728.89 788.33 732.03 775.3 739.22 769.01C746.41 762.72 795.06 733.14 795.06 733.14L788.67 732.65C788.67 732.65 744.19 748.22 730.26 741.11C730.26 741.11 705.54 745.24 700.15 736.25C694.76 727.26 689.67 725.84 689.67 725.84L657.01 769.95L668.7 867.46H698.8L731.15 854.88L774.29 851.28C774.29 851.28 790.47 836 792.72 828.81C794.97 821.62 812.06 798.22 825.95 800.47Z" fill="black"/>
<path d="M825.95 799.14L816.56 776.3C807.812 781.854 799.665 788.302 792.25 795.54C781.01 806.78 773.37 813.54 767.98 814.86C762.59 816.18 744.17 825.56 736.53 806.28C728.89 787 732.03 773.97 739.22 767.68C746.41 761.39 795.06 733.14 795.06 733.14L788.67 731.31C788.67 731.31 744.19 746.87 730.26 739.76C730.26 739.76 705.54 743.89 700.15 734.9C694.76 725.91 689.67 724.49 689.67 724.49L657.01 768.6L668.7 866.11H698.8L731.15 853.53L774.29 849.93C774.29 849.93 790.47 834.66 792.72 827.47C794.97 820.28 812.06 796.87 825.95 799.14Z" fill="#565988"/>
<path opacity="0.1" d="M719.43 908.51C718.91 910.99 718.49 912.58 718.49 912.58C718.49 912.58 716.64 911.9 693.9 916.29C671.16 920.68 648.57 916.29 648.57 916.29C635.363 914.759 622.291 912.221 609.47 908.7C589.93 903.14 564.31 896.56 566.47 889.7C566.61 889.3 566.75 888.85 566.92 888.41C568.98 887.41 575.97 883.95 576.41 883.8C576.41 883.8 715.08 906.21 717.78 907.06C718.485 907.331 719.07 907.846 719.43 908.51V908.51Z" fill="black"/>
<path opacity="0.1" d="M816.56 777.63L824.36 795.26C824.36 795.26 812.36 788.89 797.02 815.01C781.68 841.13 779.66 844.84 779.66 844.84C779.66 844.84 768.88 852.2 771.58 861.58C771.58 861.58 739.64 872.58 718.58 865.31C718.58 865.31 713.86 879.55 714.37 889.16C714.685 894.291 714.711 899.436 714.45 904.57C714.45 904.57 720.45 900.02 697.69 904.41C674.93 908.8 652.36 907.52 652.36 907.52C639.942 905.494 627.649 902.767 615.54 899.35C595.99 893.79 565.66 895.22 567.85 888.35C570.04 881.48 577.29 868.47 577.29 868.47C577.29 868.47 582.51 865.47 582.29 862.57C582.07 859.67 591.9 851.28 591.9 851.28C591.9 851.28 597.96 846.23 597.12 842.01C596.28 837.79 603.02 830.89 603.02 830.89L615.83 805.79C615.83 805.79 626.61 782.36 634.03 781.35C641.45 780.34 655.09 758.77 655.09 758.77C655.09 758.77 679.35 739.23 679.52 735.18C679.69 731.13 691.65 723.89 691.65 723.89C691.65 723.89 693.58 740.43 709.65 741.11C725.72 741.79 746.95 741.11 746.95 741.11L788.64 731.31C788.64 731.31 770.38 747.82 766.16 749C761.94 750.18 749.26 759.28 742.8 761C736.34 762.72 723.21 771.54 723.72 784.14C724.23 796.74 728.61 803.14 728.61 803.14C728.61 803.14 741.75 828.14 754.89 825.14C754.89 825.14 769.57 825.93 775.45 817.22C781.33 808.51 816.56 777.63 816.56 777.63Z" fill="black"/>
<path opacity="0.1" d="M790 729.92L788.86 730.79L787.55 731.79L765.29 742.48L734.74 751.03L715.41 753.27L682.61 730.54C682.61 730.54 686.4 727 691.97 722.54C692.87 726.54 696.54 737.78 709.68 738.33C725.73 739.02 746.98 738.33 746.98 738.33L789.16 730.04L790 729.92Z" fill="black"/>
<path d="M816.56 776.28L824.36 795.28C824.36 795.28 811.01 787.57 795.67 813.69C780.33 839.81 778.32 843.51 778.32 843.51C778.32 843.51 768.88 852.22 771.58 861.6C771.58 861.6 742.42 876.37 721.36 869.12C721.36 869.12 720.86 877.89 721.36 887.49C721.86 897.09 718.5 909.9 718.5 909.9C718.5 909.9 716.64 909.23 693.89 913.61C671.14 917.99 648.57 913.61 648.57 913.61C635.362 912.085 622.291 909.551 609.47 906.03C589.93 900.47 564.31 893.89 566.47 887.03C568.63 880.17 575.91 867.14 575.91 867.14C575.91 867.14 581.13 864.14 580.97 861.24C580.81 858.34 590.57 849.95 590.57 849.95C590.57 849.95 596.64 844.95 595.79 840.69C594.94 836.43 601.69 829.56 601.69 829.56L614.5 804.46C614.5 804.46 625.28 781.03 632.7 780.02C640.12 779.01 653.76 757.44 653.76 757.44C653.76 757.44 678.06 737.84 678.22 733.79C678.38 729.74 690.36 722.5 690.36 722.5C690.36 722.5 692.28 739.04 708.36 739.72C724.44 740.4 745.67 739.72 745.67 739.72L788.67 731.27C788.67 731.27 769.07 746.43 764.86 747.61C760.65 748.79 747.95 757.89 741.49 759.61C735.03 761.33 721.89 770.23 722.39 782.87C722.89 795.51 727.28 801.87 727.28 801.87C727.28 801.87 740.42 826.81 753.57 823.78C753.57 823.78 768.24 824.56 774.12 815.86C780 807.16 816.56 776.28 816.56 776.28Z" fill="#8F0B0D"/>
<path opacity="0.1" d="M685.81 837.42C685.81 837.42 702.32 868.09 709.9 871.42C717.48 874.75 715.97 869.06 715.97 869.06C715.97 869.06 688.17 844.14 685.81 837.42Z" fill="black"/>
<path opacity="0.1" d="M653.96 860.68C653.96 860.68 670.14 886.46 682.1 886.46L653.96 860.68Z" fill="black"/>
<path opacity="0.1" d="M618.4 828.83C618.4 828.83 637.28 888.48 671.99 893.2C671.99 893.2 626.66 859.84 618.4 828.83Z" fill="black"/>
<path opacity="0.1" d="M621.77 880.39C621.77 880.39 652.95 905.16 671.99 901.46C671.99 901.46 639.47 895.9 621.77 880.39Z" fill="black"/>
<path opacity="0.1" d="M598.63 922.89C598.63 922.89 629.8 947.66 648.85 943.95C648.85 943.95 616.32 938.39 598.63 922.89Z" fill="black"/>
<path opacity="0.1" d="M606.78 936.95C606.78 936.95 637.95 961.72 656.99 958.02C656.99 958.02 624.47 952.46 606.78 936.95Z" fill="black"/>
<path opacity="0.1" d="M611.49 914.14C611.49 914.14 642.66 938.88 661.7 935.14C661.7 935.14 629.18 929.61 611.49 914.14Z" fill="black"/>
<path opacity="0.1" d="M755.06 767.49L735.52 792.6L738.21 797.65L755.06 767.49Z" fill="black"/>
<path opacity="0.1" d="M892.9 739.72C892.901 745.267 891.81 750.76 889.688 755.885C887.567 761.011 884.457 765.668 880.535 769.591C876.614 773.514 871.958 776.627 866.834 778.751C861.71 780.875 856.217 781.969 850.67 781.97C848.713 781.971 846.758 781.834 844.82 781.56C845.443 780.849 845.965 780.055 846.37 779.2C847.62 775.71 842.37 772.07 844.02 768.73C844.87 766.95 847.16 766.5 849.13 766.45C851.1 766.4 853.29 766.45 854.72 765.09C856.37 763.5 856.14 760.88 856.56 758.63C857.22 755.21 859.62 752.36 862.23 750.03C864.84 747.7 867.76 745.69 870.01 743.03C873.46 738.93 875.08 733.57 875.51 728.23C875.79 724.78 875.51 721.11 873.69 718.23C871.69 715.14 868.26 713.4 865.12 711.5C862.199 709.884 859.656 707.665 857.66 704.99C856.38 703.11 855.1 700.18 855.51 697.8C865.796 698.993 875.285 703.921 882.178 711.649C889.07 719.376 892.886 729.365 892.9 739.72V739.72Z" fill="black"/>
<path d="M916.06 741.79C915.895 742.491 915.628 743.165 915.27 743.79C915.17 743.97 915.05 744.16 914.94 744.35L914.33 745.28C913.369 746.482 912.732 747.911 912.48 749.43C912.36 751.28 913.37 752.97 914.03 754.73L914.14 755.04C914.23 755.289 914.307 755.543 914.37 755.8C914.778 757.539 914.641 759.361 913.98 761.02V761.02C913.257 762.871 912.188 764.568 910.83 766.02C908.28 768.77 905.07 770.85 902.5 773.57C900.58 775.57 899.03 777.94 897.13 779.96C892.63 784.72 886.33 787.45 879.92 788.75C874.902 789.654 869.808 790.066 864.71 789.98H860.36C859.679 790.021 858.997 789.915 858.36 789.67C857.625 789.177 856.991 788.549 856.49 787.82C853.87 784.82 849.49 784.25 845.49 783.91C845.448 783.529 845.485 783.143 845.599 782.776C845.712 782.41 845.9 782.071 846.15 781.78C846.797 781.013 847.348 780.17 847.79 779.27C849.05 775.77 843.79 772.14 845.45 768.78C845.603 768.464 845.814 768.18 846.07 767.94C846.238 767.772 846.422 767.621 846.62 767.49C847.822 766.815 849.181 766.47 850.56 766.49C851.3 766.49 852.07 766.49 852.82 766.4C854.01 766.353 855.151 765.91 856.06 765.14V765.14C857.71 763.57 857.48 760.94 857.9 758.7C858.56 755.26 860.96 752.42 863.57 750.1C866.18 747.78 869.1 745.76 871.35 743.1C874.8 739.01 876.42 733.63 876.85 728.31C877.13 724.86 876.85 721.18 875.03 718.31C873.29 715.61 870.43 713.94 867.64 712.31L866.46 711.61C864.293 710.36 862.305 708.823 860.55 707.04C860.005 706.376 859.507 705.674 859.06 704.94C857.81 703.1 856.57 700.27 856.88 697.94C856.892 697.784 856.919 697.63 856.96 697.48C857.55 694.91 860.09 694.88 862.5 694.56C863.15 694.48 863.79 694.41 864.44 694.37C865.399 694.315 866.361 694.315 867.32 694.37C871.429 694.524 875.447 695.626 879.06 697.59C880.4 698.32 881.68 699.17 883.06 699.8C886.34 701.27 890.06 701.46 893.44 702.54C900.28 704.68 905.59 710.28 908.96 716.6C912.33 722.92 914.01 729.97 915.66 736.93C916.15 738.501 916.286 740.16 916.06 741.79V741.79Z" fill="#965D7B"/>
<path opacity="0.1" d="M788.28 1000.07C788.071 1000.98 787.734 1001.86 787.28 1002.67C787.28 1002.67 782.82 1002.83 776.28 1002.78C767.35 1002.71 754.59 1002.25 744.28 1000.43C738.132 999.544 731.917 999.21 725.71 999.43L682.49 995.06L659.13 991.9L647.13 965.74C654.07 966.12 660.05 965.85 660.05 965.85C673.32 953.27 685.67 955.29 692.41 960.75C699.15 966.21 711.74 970.56 712.63 970.56C713.23 970.56 733.1 970.98 745.88 971.24C755.78 971.387 765.489 973.985 774.14 978.8C789.06 987.14 789.28 995.86 788.28 1000.07Z" fill="black"/>
<path d="M566.37 915.54L556.56 919.14C556.56 919.14 529.38 900.44 489.61 909.2C449.84 917.96 452.54 941.33 452.54 941.33C452.54 941.33 454.11 969.97 465.54 979.8C476.97 989.63 484.19 990.08 490.7 997.5C497.21 1004.92 530.92 1008.28 530.92 1008.28C530.92 1008.28 597.65 1011.65 633.6 1008.28C669.55 1004.91 685.78 1004.91 685.78 1004.91C685.78 1004.91 725.26 999.97 743.01 1003.11C760.76 1006.25 785.93 1005.36 785.93 1005.36C785.93 1005.36 793.35 993.08 772.84 981.47C764.191 976.649 754.481 974.051 744.58 973.91C731.81 973.64 711.94 973.23 711.33 973.23C710.43 973.23 697.85 968.88 691.11 963.42C684.37 957.96 672.02 955.93 658.76 968.51C658.76 968.51 629.33 969.86 625.28 962.45C621.23 955.04 600.34 931.78 600.34 931.78L566.37 915.54Z" fill="#FFC1C7"/>
<path opacity="0.1" d="M615.2 959.68C615.2 959.68 614.98 963.75 624.08 963.08C632.5 962.45 599.14 932.41 599.14 932.41L565.14 916.16L555.33 919.77C555.33 919.77 588.24 915.87 615.2 959.68Z" fill="black"/>
<path d="M616.55 958.33C616.55 958.33 616.33 962.4 625.43 961.73C633.85 961.11 600.49 931.06 600.49 931.06L566.49 914.81L556.67 918.42C556.67 918.42 589.59 914.52 616.55 958.33Z" fill="#264632"/>
<path opacity="0.1" d="M519.94 930.55C519.94 930.55 529.6 925.61 543.76 931.79C548.816 933.967 554.023 935.775 559.34 937.2C567.866 939.502 576.051 942.921 583.68 947.37C593.54 953.1 606.92 959.98 614.36 959.98" stroke="black" stroke-miterlimit="10"/>
<path opacity="0.1" d="M863.06 789.9C862.379 789.947 861.695 789.841 861.06 789.59C860.321 789.103 859.685 788.474 859.19 787.74C856.57 784.74 852.14 784.17 848.19 783.84C847.87 782.1 849.88 780.84 850.48 779.2C851.75 775.7 846.48 772.07 848.14 768.72C849 766.95 851.29 766.5 853.26 766.45C855.23 766.4 857.42 766.45 858.84 765.08C860.49 763.5 860.26 760.87 860.69 758.63C861.34 755.2 863.74 752.35 866.35 750.03C868.96 747.71 871.89 745.69 874.14 743.03C877.58 738.94 879.2 733.57 879.64 728.24C879.92 724.78 879.64 721.11 877.81 718.19C875.81 715.11 872.38 713.37 869.24 711.46C866.319 709.844 863.776 707.625 861.78 704.95C860.46 703.01 859.12 699.95 859.68 697.5C860.24 695.05 862.82 694.9 865.23 694.58C865.94 694.48 866.64 694.42 867.36 694.38C865.747 694.307 864.131 694.374 862.53 694.58C860.12 694.9 857.53 694.93 856.98 697.5C856.43 700.07 857.76 703.01 859.09 704.95C861.086 707.625 863.629 709.844 866.55 711.46C869.6 713.35 873.06 715.14 875.06 718.14C876.93 721.06 877.17 724.73 876.89 728.19C876.45 733.52 874.89 738.89 871.39 742.98C869.14 745.66 866.22 747.67 863.61 749.98C861 752.29 858.61 755.15 857.94 758.58C857.51 760.82 857.74 763.45 856.1 765.03C854.68 766.39 852.48 766.35 850.51 766.4C848.54 766.45 846.25 766.9 845.39 768.67C843.77 772.02 849 775.67 847.74 779.15C847.13 780.81 845.13 782.05 845.44 783.79C849.44 784.12 853.86 784.66 856.44 787.69C856.93 788.428 857.566 789.058 858.31 789.54C858.945 789.793 859.628 789.899 860.31 789.85C861.76 789.85 863.22 789.85 864.68 789.85L863.06 789.9Z" fill="black"/>
<path d="M914.55 762.53C914.95 761.25 915.4 759.82 915.84 758.3C917.133 754.278 918.112 750.163 918.77 745.99C917.549 745.307 916.262 744.748 914.93 744.32C915.04 744.13 915.16 743.94 915.26 743.76L914.36 744.13C914.36 744.13 914.36 744.55 914.36 745.25C914.29 747.15 914.15 751.17 914.06 754.7C914.06 754.76 914.06 754.81 914.06 754.86C913.99 757.65 913.95 760.12 914.06 761L914.55 762.53Z" fill="#565988"/>
</g>
<defs>
<linearGradient id="paint0_linear" x1="398" y1="157" x2="1344.4" y2="1046.95" gradientUnits="userSpaceOnUse">
<stop stop-color="#17EAD9"/>
<stop offset="0.484375" stop-color="#335CC5"/>
<stop offset="1" stop-color="#6078EA"/>
</linearGradient>
<linearGradient id="paint1_linear" x1="792.26" y1="1023.75" x2="792.26" y2="638.23" gradientUnits="userSpaceOnUse">
<stop stop-color="#808080" stop-opacity="0.25"/>
<stop offset="0.54" stop-color="#808080" stop-opacity="0.12"/>
<stop offset="1" stop-color="#808080" stop-opacity="0.1"/>
</linearGradient>
<clipPath id="clip0">
<rect width="1440" height="1024" fill="white"/>
</clipPath>
</defs>
</svg>
