<svg width="1440" height="1024" viewBox="0 0 1440 1024" fill="none" xmlns="http://www.w3.org/2000/svg">
<path d="M1047.88 333.209C1047.88 333.209 1035.81 329.676 1032.82 326.112C1029.83 322.549 1015.59 315.524 1013.59 319.476C1011.6 323.428 989.9 335.559 1003.61 339.237C1017.32 342.914 1036.09 345.383 1040.33 344.103C1044.57 342.824 1047.88 333.209 1047.88 333.209Z" fill="#A8A8A8"/>
<path opacity="0.2" d="M1003.74 337.715C1017.45 341.392 1036.22 343.861 1040.46 342.582C1043.69 341.607 1046.38 335.803 1047.48 333.088C1047.74 333.166 1047.88 333.209 1047.88 333.209C1047.88 333.209 1044.57 342.824 1040.33 344.103C1036.09 345.383 1017.32 342.914 1003.61 339.237C999.652 338.175 998.648 336.409 999.266 334.338C999.489 335.744 1000.8 336.925 1003.74 337.715Z" fill="black"/>
<path d="M849.572 70.9052C755.305 89.045 676.567 145.735 581.524 177.634C486.482 209.534 374.64 216.193 304.357 271.54C235.019 326.843 207.283 431.777 209.228 533.902C211.667 636.476 243.788 736.241 303.134 811.069C362.479 885.897 448.556 935.338 535.821 959.643C622.591 983.498 710.056 981.766 808.668 985.664C907.325 990.507 1016.64 1000.53 1090.73 955.887C1164.79 910.301 1203.13 809.601 1244.13 704.992C1285.58 599.887 1330.19 491.323 1317.31 388.291C1304.94 285.709 1234.14 188.703 1144.34 130.445C1053.59 72.2311 944.29 52.2711 849.572 70.9052Z" fill="url(#paint0_linear)"/>
<path d="M1281.5 986C1198.93 986 1132 914.142 1132 825.5C1132 736.858 1198.93 665 1281.5 665C1364.07 665 1431 736.858 1431 825.5C1431 914.142 1364.07 986 1281.5 986Z" fill="url(#paint1_linear)"/>
<path d="M1116.51 565.101C1116.51 565.101 1099.86 517.907 1087.83 532.713C1075.8 547.519 1106.33 572.504 1106.33 572.504L1116.51 565.101Z" fill="#A0616A"/>
<path d="M1195.17 518.832L1185.15 522.546C1185.15 522.546 1180.36 543.817 1182.21 547.519C1184.07 551.22 1184.99 548.444 1182.21 555.847C1179.44 563.25 1171.11 582.683 1170.18 585.459C1169.26 588.236 1116.51 567.877 1116.51 557.698C1116.51 557.698 1105.41 570.653 1099.86 573.43C1099.86 573.43 1160.93 617.848 1169.26 623.4C1177.59 628.952 1182.21 626.176 1189.62 619.699C1197.02 613.221 1228.48 559.549 1228.48 559.549L1195.17 518.832Z" fill="#264632"/>
<path d="M1168.33 847.343C1168.33 847.343 1169.26 857.522 1171.11 858.447C1172.96 859.373 1186.84 882.507 1171.11 887.134C1155.38 891.761 1146.12 889.91 1142.42 891.761C1138.72 893.612 1073.94 897.313 1073.02 887.134C1072.09 876.955 1104.48 875.104 1104.48 875.104C1104.48 875.104 1134.09 855.671 1138.72 845.492C1143.35 835.313 1168.33 847.343 1168.33 847.343Z" fill="#2F2E41"/>
<path d="M1356.19 865.85C1356.19 865.85 1378.4 903.791 1372.84 908.418C1367.29 913.045 1313.22 929.907 1305.29 930.627C1295.11 931.553 1287.71 923.224 1296.04 918.597C1304.37 913.97 1321.95 894.537 1321.95 888.06V871.403L1356.19 865.85Z" fill="#2F2E41"/>
<path d="M1377.47 617.848C1377.47 617.848 1396.9 641.908 1366.37 680.774L1315.47 745.551C1315.47 745.551 1346.93 795.521 1347.86 821.432C1348.78 847.343 1355.26 841.79 1357.11 852.895C1358.96 864 1367.29 858.447 1360.81 866.776C1354.34 875.104 1330.28 882.507 1322.87 876.03C1315.47 869.552 1315.47 861.224 1315.47 857.522C1315.47 853.82 1302.51 832.537 1301.59 826.059C1300.66 819.581 1266.42 766.834 1266.42 766.834C1266.42 766.834 1255.32 735.371 1268.28 717.789C1281.23 700.207 1289.79 675.27 1289.79 675.27C1289.79 675.27 1251.62 721.491 1224.78 732.595C1224.78 732.595 1214.6 734.446 1216.45 739.073C1218.3 743.7 1216.45 746.476 1213.68 751.103C1210.9 755.73 1191.47 809.402 1184.99 823.283C1178.51 837.164 1181.29 845.492 1173.89 850.119C1166.48 854.746 1133.17 851.044 1133.17 846.417C1133.17 841.79 1137.8 829.761 1140.57 823.283C1143.35 816.805 1165.56 741.849 1163.71 728.894C1161.86 715.938 1164.63 698.356 1178.51 690.953C1192.39 683.55 1262.72 623.4 1266.42 623.4C1270.13 623.4 1377.47 617.848 1377.47 617.848Z" fill="#2F2E41"/>
<path d="M1191.47 472.563C1170 472.563 1152.6 455.162 1152.6 433.697C1152.6 412.232 1170 394.831 1191.47 394.831C1212.93 394.831 1230.33 412.232 1230.33 433.697C1230.33 455.162 1212.93 472.563 1191.47 472.563Z" fill="#C36C78"/>
<path d="M1222.93 437.398C1222.93 437.398 1234.96 458.682 1249.77 461.458C1264.57 464.234 1210.9 506.802 1210.9 506.802C1210.9 506.802 1197.95 466.085 1186.84 464.234C1175.74 462.384 1222.93 437.398 1222.93 437.398Z" fill="#C46C78"/>
<path d="M1184.99 524.384C1184.99 536.414 1221.08 570.653 1221.08 570.653L1255.32 599.34C1255.32 599.34 1256.25 609.519 1259.95 610.445C1263.65 611.37 1268.28 611.37 1264.57 616.923C1260.87 622.475 1251.62 634.505 1259.95 636.356C1262.46 636.737 1264.99 636.978 1267.53 637.077C1269.75 637.207 1272.36 637.327 1275.29 637.438C1282.14 637.679 1290.71 637.836 1299.99 637.771C1302.63 637.762 1305.31 637.731 1308.04 637.679C1343.03 636.985 1383.56 632.959 1380.25 619.699C1374.69 597.489 1378.4 590.086 1366.37 578.056C1354.34 566.026 1334.9 524.384 1334.9 524.384C1334.9 524.384 1296.04 458.682 1263.65 458.682L1256.92 456.915C1253.79 456.091 1250.49 456.272 1247.47 457.431C1244.45 458.59 1241.88 460.669 1240.11 463.374C1233.61 473.266 1223.37 488.128 1217.38 492.921C1208.13 500.324 1206.68 495.013 1206.68 495.013C1206.68 495.013 1184.99 512.354 1184.99 524.384Z" fill="#8F0B0D"/>
<path d="M1267.35 665.042C1267.35 665.042 1240.51 706.685 1257.17 714.088C1273.83 721.491 1283.08 670.595 1283.08 670.595L1267.35 665.042Z" fill="#C36C78"/>
<path d="M1216.88 429.307C1215.39 429.119 1214.91 427.236 1214.66 425.754C1213.32 417.816 1207.4 410.288 1199.45 409.007C1196.42 408.603 1193.33 408.852 1190.39 409.737C1186.19 410.891 1182.24 412.833 1178.76 415.46C1176.93 416.849 1175.16 418.46 1172.95 419.109C1171.5 419.537 1165.3 422.29 1163.86 422.756C1160.68 423.78 1158.04 427.109 1154.77 426.45C1151.63 425.819 1150.44 422.035 1149.94 418.877C1148.79 411.685 1152.91 400.952 1157 394.927C1160.11 390.355 1165.36 387.724 1170.62 386.012C1176.78 384.143 1183.1 382.886 1189.51 382.259C1198.15 381.238 1207.11 380.697 1215.39 383.369C1223.68 386.041 1231.22 392.578 1232.77 401.144C1233.09 402.929 1233.15 404.757 1233.54 406.527C1234.51 410.844 1237.36 414.473 1239.03 418.571C1240.23 421.58 1240.79 424.808 1240.67 428.047C1240.55 431.285 1239.75 434.462 1238.32 437.373C1236.01 442.013 1232 446.473 1232.87 451.582L1225.73 445.951C1224.69 445.365 1223.9 444.442 1223.46 443.338C1223.03 442.233 1222.99 441.013 1223.34 439.881L1224.38 430.939C1224.57 429.302 1224.74 427.535 1223.92 426.105C1220.74 420.561 1219.36 429.621 1216.88 429.307Z" fill="#2F2E41"/>
<path opacity="0.1" d="M1284.01 601.191L1275.29 637.438C1284.08 637.753 1295.71 637.919 1308.04 637.679C1311.15 628.351 1314.12 618.625 1316.4 609.519C1324.72 576.206 1310.84 525.31 1303.44 501.25C1296.04 477.19 1277.53 470.712 1277.53 470.712C1277.53 470.712 1268.28 473.488 1256.25 481.817C1244.22 490.145 1284.01 601.191 1284.01 601.191Z" fill="black"/>
<path opacity="0.1" d="M1276.6 599.34L1267.53 637.077C1269.75 637.207 1272.36 637.327 1275.29 637.438C1282.14 637.679 1290.71 637.836 1299.99 637.771C1303.33 627.861 1306.56 617.404 1308.99 607.669C1317.32 574.355 1303.44 523.459 1296.04 499.399C1288.63 475.339 1272.44 501.712 1272.44 501.712C1272.44 501.712 1278.92 485.981 1266.89 494.309C1254.86 502.638 1276.6 599.34 1276.6 599.34Z" fill="black"/>
<path d="M1273.83 468.861C1273.83 468.861 1292.34 475.339 1299.74 499.399C1307.14 523.459 1321.02 574.355 1312.69 607.669C1304.37 640.982 1286.78 682.625 1286.78 682.625C1286.78 682.625 1269.2 669.669 1262.72 672.445L1280.31 599.34C1280.31 599.34 1240.51 488.294 1252.54 479.966C1264.57 471.637 1273.83 468.861 1273.83 468.861Z" fill="#264632"/>
<path d="M1113 291H307V758H1113V291Z" fill="#121212"/>
<path d="M979.281 422.658H802V432.465H979.281V422.658Z" fill="white"/>
<path d="M1060 440.763H802V450.57H1060V440.763Z" fill="white"/>
<path d="M979.281 484.517H802V494.325H979.281V484.517Z" fill="white"/>
<path d="M979.281 556.939H802V566.746H979.281V556.939Z" fill="white"/>
<path d="M1060 502.623H802V512.43H1060V502.623Z" fill="white"/>
<path d="M1060 520.728H802V530.535H1060V520.728Z" fill="white"/>
<path d="M1060 538.833H802V548.64H1060V538.833Z" fill="white"/>
<path d="M894.789 600.693H802V626.342H894.789V600.693Z" fill="#FFB300"/>
<path d="M777 395H335V648H777V395Z" fill="#EEEEEE"/>
<path d="M555.777 570.756C583.401 570.756 605.794 548.322 605.794 520.648C605.794 492.974 583.401 470.54 555.777 470.54C528.153 470.54 505.76 492.974 505.76 520.648C505.76 548.322 528.153 570.756 555.777 570.756Z" fill="#FFB300"/>
<path d="M555.777 462C543.954 462 532.397 465.506 522.567 472.074C512.736 478.643 505.075 487.978 500.55 498.901C496.026 509.824 494.842 521.843 497.149 533.439C499.455 545.034 505.148 555.685 513.508 564.045C521.868 572.405 532.519 578.099 544.115 580.405C555.711 582.712 567.73 581.528 578.652 577.003C589.575 572.479 598.911 564.817 605.479 554.987C612.048 545.157 615.554 533.6 615.554 521.777C615.507 505.937 609.195 490.76 597.994 479.559C586.794 468.359 571.616 462.046 555.777 462ZM543.505 553.648L512.87 523.013L521.463 514.42L543.534 536.491L590.12 489.905L598.713 498.498L543.505 553.648Z" fill="#121212"/>
<defs>
<linearGradient id="paint0_linear" x1="820.066" y1="64.1527" x2="820.066" y2="990.145" gradientUnits="userSpaceOnUse">
<stop stop-color="#363553"/>
<stop offset="0.510417" stop-color="#903775"/>
<stop offset="1" stop-color="#E8458B"/>
</linearGradient>
<linearGradient id="paint1_linear" x1="820.066" y1="64.1527" x2="820.066" y2="990.145" gradientUnits="userSpaceOnUse">
<stop stop-color="#363553"/>
<stop offset="0.510417" stop-color="#903775"/>
<stop offset="1" stop-color="#E8458B"/>
</linearGradient>
</defs>
</svg>
