<svg width="1440" height="1024" viewBox="0 0 1440 1024" fill="none" xmlns="http://www.w3.org/2000/svg">
<g clip-path="url(#clip0)">
<g clip-path="url(#clip1)">
<path d="M868.723 213.75C787.247 192.537 731.305 119.482 665.511 99.2946C600.194 79.6992 524.071 111.788 441.334 154.094C358.118 195.809 267.334 246.558 220.415 323.457C173.974 400.949 170.92 504 248.602 553.665C326.883 602.845 485.899 598.639 551.934 659.65C617.846 721.735 590.898 847.961 620.74 920.579C651.059 993.789 737.09 1013.28 822.605 1003.89C907.998 995.579 991.676 959.351 1083.17 911.937C1174.54 865.6 1273.73 808.076 1322.1 723.163C1371.08 637.766 1369.86 524.494 1335.53 429.124C1300.73 333.162 1233.55 253.542 1145.86 229.531C1058.29 204.443 950.799 234.48 868.723 213.75Z" fill="url(#paint0_linear)"/>
</g>
<path d="M492.947 875.29L499.329 870.549C499.329 870.549 503.553 894.145 498.839 897.681C494.126 901.216 476.449 907.109 476.449 914.179C476.449 921.25 436.381 930.678 435.202 920.072C434.024 909.466 438.738 903.573 438.738 903.573C438.738 903.573 457.593 884.718 459.95 881.182C462.307 877.647 468.199 870.576 468.199 870.576L492.947 875.29Z" fill="#2F2E41"/>
<path d="M398.67 581.853C398.67 581.853 398.847 582.89 399.153 584.788C399.436 586.473 399.825 588.853 400.296 591.788C405.246 621.992 419.682 710.907 418.704 713.841C417.526 717.376 409.276 730.339 418.704 733.875C419.611 734.217 420.589 735.324 421.638 737.068C423.663 740.825 425.332 744.762 426.623 748.829C432.244 765.139 438.255 791.242 441.731 809.32C443.251 817.263 444.288 823.65 444.595 826.997C444.701 827.77 444.713 828.554 444.63 829.33C443.452 834.044 451.701 850.542 455.236 855.256C458.772 859.97 464.664 864.684 463.485 869.398C462.307 874.112 492.947 887.075 496.482 878.826C500.018 870.576 500.018 865.862 501.196 863.506C502.375 861.149 503.553 844.65 497.661 842.293C491.769 839.936 495.304 798.69 489.412 790.441C487.444 787.695 484.439 778.397 481.292 767.213C480.055 762.83 478.806 758.163 477.58 753.484C472.607 734.311 468.199 715.019 468.199 715.019L469.378 577.139L404.562 568.89L402.901 572.555L399.589 579.826L398.67 581.853Z" fill="#2F2E41"/>
<path d="M395.135 808.118C395.135 808.118 385.707 798.69 380.993 808.118C376.28 817.546 371.566 854.078 363.316 862.327C355.067 870.576 344.461 911.822 356.246 914.179C368.03 916.536 380.993 910.644 382.172 903.573C383.35 896.502 408.098 859.97 408.098 856.435C408.098 852.899 391.599 839.936 391.599 839.936L395.135 808.118Z" fill="#2F2E41"/>
<path d="M540.085 517.038C540.085 517.038 524.765 654.918 521.23 667.881C517.695 680.844 498.839 730.339 492.947 738.589C487.055 746.838 449.344 814.01 444.63 817.546C439.916 821.081 430.489 830.509 430.489 830.509C430.489 830.509 412.812 848.186 410.455 851.721C408.098 855.256 388.064 844.65 386.885 837.579C385.707 830.509 388.064 818.724 389.242 814.01C390.421 809.296 386.886 802.226 390.421 798.69C393.956 795.155 411.633 777.478 411.633 769.229C411.633 760.979 442.273 712.663 454.058 702.056C465.842 691.45 463.485 673.773 463.485 673.773V601.887L398.67 581.853C398.67 581.853 402.205 525.287 410.455 525.287C418.704 525.287 527.122 506.432 540.085 517.038Z" fill="#2F2E41"/>
<path d="M444.63 320.235C423.152 320.235 405.741 302.824 405.741 281.346C405.741 259.868 423.152 242.457 444.63 242.457C466.108 242.457 483.52 259.868 483.52 281.346C483.52 302.824 466.108 320.235 444.63 320.235Z" fill="#C36C78"/>
<path d="M457.593 311.986C457.593 311.986 462.307 329.663 468.199 334.377C474.092 339.09 452.879 359.124 452.879 359.124L412.812 361.481L405.741 339.09C405.741 339.09 418.704 313.164 415.169 296.666C411.633 280.167 457.593 311.986 457.593 311.986Z" fill="#C36C78"/>
<path d="M474.092 332.02C474.092 332.02 463.485 333.198 461.129 336.733C458.772 340.269 442.273 350.875 429.31 348.518C416.347 346.161 408.098 342.626 405.741 343.804C403.384 344.983 398.67 369.73 398.67 369.73L411.633 407.441L409.276 511.146L405.741 539.429C405.741 539.429 398.67 530.001 426.953 535.893C455.236 541.786 491.769 531.179 503.553 530.001C515.338 528.823 535.372 525.287 536.55 518.216C537.729 511.146 533.015 485.22 533.015 485.22L514.159 406.263L502.375 363.838L474.092 332.02Z" fill="#264632"/>
<path d="M462.945 326.701C462.945 326.701 472.913 321.413 476.449 326.127C479.984 330.841 524.766 337.912 524.766 341.447C524.766 344.983 534.193 440.438 531.836 448.687C529.479 456.937 536.55 466.364 536.55 466.364L544.799 501.718C544.799 501.718 567.19 568.89 557.763 571.247C548.335 573.604 540.086 571.247 536.55 571.247C533.015 571.247 534.193 526.466 524.766 514.681C515.338 502.896 502.375 473.435 500.018 467.543C497.661 461.65 468.199 380.337 469.378 370.909C470.556 361.481 462.945 326.701 462.945 326.701Z" fill="#8F0B0D"/>
<path d="M413.99 332.02C413.99 332.02 404.562 332.02 403.384 334.377C402.205 336.733 390.421 352.053 385.707 355.589C380.993 359.124 364.495 374.444 364.495 377.98C364.495 381.515 398.67 407.441 398.67 407.441C398.67 407.441 412.812 476.97 405.741 500.54C398.67 524.109 388.064 580.675 392.778 584.21C397.492 587.746 408.098 588.924 408.098 584.21C408.098 579.496 415.169 528.823 421.061 518.216C426.953 507.61 444.63 440.438 437.559 421.583C430.489 402.727 413.99 332.02 413.99 332.02Z" fill="#8F0B0D"/>
<path d="M569.547 448.687C569.547 448.687 570.726 485.22 557.762 504.075C544.799 522.93 536.55 544.143 536.55 544.143C536.55 544.143 515.338 538.25 511.802 531.18C508.267 524.109 485.876 530.001 485.876 527.644C485.876 525.287 512.981 513.503 515.338 511.146C517.695 508.789 525.944 508.789 530.658 504.075C535.372 499.361 536.55 488.755 536.55 488.755L541.264 458.115L569.547 448.687Z" fill="#C36C78"/>
<path d="M471.415 257.367C474.407 257.096 477.492 256.797 480.136 255.371C486.061 252.176 487.632 243.077 483.122 238.08C481.878 236.809 480.488 235.69 478.979 234.749L470.021 228.651C466.059 225.955 462.004 223.214 457.383 221.943C453.203 220.793 448.789 220.911 444.463 221.18C436.064 221.702 427.614 222.78 419.714 225.68C411.815 228.58 404.446 233.431 399.662 240.353C392.077 251.328 391.973 266.128 396.15 278.797C400.328 291.466 408.263 302.499 416.081 313.307L420.138 293.513C420.5 291.749 420.967 289.817 422.433 288.774C426.078 286.18 430.536 291.505 435.009 291.471C437.883 291.448 440.296 289.084 441.385 286.425C442.474 283.765 442.546 280.819 442.798 277.956C443.332 271.892 445.451 263.454 451.194 260.11C456.546 256.993 465.4 257.914 471.415 257.367Z" fill="#2F2E41"/>
<path opacity="0.1" d="M469.233 582.804C469.233 582.804 465.253 697.932 462.896 701.467C460.539 705.003 462.896 582.443 462.896 582.443L469.233 582.804Z" fill="black"/>
<path d="M515.338 341.447H524.766C524.766 341.447 564.833 395.656 560.119 399.192C555.406 402.727 560.119 412.155 560.119 412.155L569.547 429.832C569.547 429.832 581.332 440.438 577.796 442.795C574.261 445.152 569.547 454.58 569.547 454.58C569.547 454.58 545.978 451.044 538.907 465.186L523.623 445.89L515.338 341.447Z" fill="#D0CDE1"/>
<path d="M408.098 442.795C408.098 442.795 434.024 443.973 463.485 425.118L492.947 412.155C492.947 412.155 518.873 372.087 521.23 379.158C523.587 386.229 517.695 400.37 517.695 400.37C517.695 400.37 553.25 416.825 554.174 419C555.098 421.175 534.193 415.69 534.193 415.69C534.193 415.69 537.729 438.081 517.695 439.26C497.661 440.438 491.769 435.724 491.769 435.724C491.769 435.724 406.919 506.432 392.778 484.041C378.636 461.65 408.098 442.795 408.098 442.795Z" fill="#C36C78"/>
<path d="M377.458 373.266L364.495 377.98V413.333L359.781 420.404C359.781 420.404 360.959 434.546 364.495 438.081C368.03 441.616 375.101 440.438 372.744 448.687C371.327 454.065 370.928 459.661 371.565 465.186C371.565 465.186 392.778 492.29 393.956 488.755C395.135 485.22 411.633 441.616 413.99 441.616C416.347 441.616 390.421 373.266 390.421 373.266H377.458Z" fill="#D0CDE1"/>
<path d="M532.426 551.803C532.426 551.803 544.61 540.018 538.518 539.429C532.425 538.839 511.213 527.055 507.678 532.947C504.142 538.839 532.426 551.803 532.426 551.803Z" fill="#2F2E41"/>
<path d="M1273 338H608.004C603.031 338 599 342.031 599 347.004V710.315C599 715.287 603.031 719.318 608.004 719.318H1273C1277.97 719.318 1282 715.287 1282 710.315V347.004C1282 342.031 1277.97 338 1273 338Z" fill="#121212"/>
<path d="M1212.34 449H668V665.424H1212.34V449Z" fill="#EEEEEE"/>
<path d="M1016.26 623.933C1024.43 610.314 1028.73 594.729 1028.7 578.851C1028.7 530.332 989.37 491 940.851 491C892.332 491 853 530.332 853 578.851C852.976 594.729 857.276 610.314 865.439 623.933H1016.26Z" fill="#FFB300"/>
<path d="M940.851 581.548C945.533 581.548 949.328 577.753 949.328 573.071C949.328 568.39 945.533 564.595 940.851 564.595C936.17 564.595 932.375 568.39 932.375 573.071C932.375 577.753 936.17 581.548 940.851 581.548Z" fill="white"/>
<path d="M873.422 591.181C875.763 591.181 877.66 589.283 877.66 586.943C877.66 584.602 875.763 582.704 873.422 582.704C871.081 582.704 869.183 584.602 869.183 586.943C869.183 589.283 871.081 591.181 873.422 591.181Z" fill="white"/>
<path d="M875.909 554.471C878.249 554.471 880.147 552.573 880.147 550.233C880.147 547.892 878.249 545.994 875.909 545.994C873.568 545.994 871.67 547.892 871.67 550.233C871.67 552.573 873.568 554.471 875.909 554.471Z" fill="white"/>
<path d="M896.947 524.285C899.288 524.285 901.186 522.388 901.186 520.047C901.186 517.706 899.288 515.808 896.947 515.808C894.607 515.808 892.709 517.706 892.709 520.047C892.709 522.388 894.607 524.285 896.947 524.285Z" fill="white"/>
<path d="M930.528 509.247C932.869 509.247 934.767 507.349 934.767 505.008C934.767 502.667 932.869 500.77 930.528 500.77C928.187 500.77 926.29 502.667 926.29 505.008C926.29 507.349 928.187 509.247 930.528 509.247Z" fill="white"/>
<path d="M967.058 513.652C969.399 513.652 971.296 511.754 971.296 509.413C971.296 507.072 969.399 505.175 967.058 505.175C964.717 505.175 962.819 507.072 962.819 509.413C962.819 511.754 964.717 513.652 967.058 513.652Z" fill="white"/>
<path d="M996.101 536.241C998.442 536.241 1000.34 534.344 1000.34 532.003C1000.34 529.662 998.442 527.764 996.101 527.764C993.76 527.764 991.863 529.662 991.863 532.003C991.863 534.344 993.76 536.241 996.101 536.241Z" fill="white"/>
<path d="M1009.36 570.563C1011.7 570.563 1013.6 568.665 1013.6 566.324C1013.6 563.984 1011.7 562.086 1009.36 562.086C1007.02 562.086 1005.12 563.984 1005.12 566.324C1005.12 568.665 1007.02 570.563 1009.36 570.563Z" fill="white"/>
<path d="M1003.05 606.812C1005.39 606.812 1007.29 604.914 1007.29 602.574C1007.29 600.233 1005.39 598.335 1003.05 598.335C1000.71 598.335 998.812 600.233 998.812 602.574C998.812 604.914 1000.71 606.812 1003.05 606.812Z" fill="white"/>
<path d="M940.851 573.071L984.391 539.935" stroke="white" stroke-width="4" stroke-miterlimit="10"/>
<path d="M755.265 397.025H668.331V421.055H755.265V397.025Z" fill="#FFB300"/>
</g>
<defs>
<linearGradient id="paint0_linear" x1="1177.51" y1="198.334" x2="435.571" y2="796.643" gradientUnits="userSpaceOnUse">
<stop stop-color="#8929AD"/>
<stop offset="0.505208" stop-color="#436AAC"/>
<stop offset="1" stop-color="#43B7B8"/>
</linearGradient>
<clipPath id="clip0">
<rect width="1440" height="1024" fill="white" transform="matrix(-1 0 0 1 1440 0)"/>
</clipPath>
<clipPath id="clip1">
<rect width="1520.41" height="1541.74" fill="white" transform="matrix(-0.627736 -0.778426 -0.778426 0.627736 1823 621)"/>
</clipPath>
</defs>
</svg>
